<svg xmlns="http://www.w3.org/2000/svg" xmlns:xlink="http://www.w3.org/1999/xlink" width="1080" zoomAndPan="magnify" viewBox="0 0 810 809.999993" height="1080" preserveAspectRatio="xMidYMid meet" version="1.0"><defs><clipPath id="b2b5486e44"><path d="M 19.234375 77.582031 L 790.984375 77.582031 L 790.984375 702 L 19.234375 702 Z M 19.234375 77.582031 " clip-rule="nonzero"/></clipPath><clipPath id="59b05c6662"><path d="M 168 723 L 433 723 L 433 732.332031 L 168 732.332031 Z M 168 723 " clip-rule="nonzero"/></clipPath></defs><g clip-path="url(#b2b5486e44)"><path fill="#4e6146" d="M 711.4375 610.15625 C 713.722656 610.023438 715.519531 609.980469 717.320312 610.285156 C 722.277344 611.207031 725.570312 614.367188 726.667969 619.328125 C 727.367188 622.53125 727.019531 625.644531 726.226562 628.804688 C 725.480469 631.746094 724.339844 634.554688 722.980469 637.273438 C 722.671875 637.890625 722.367188 638.546875 722.058594 639.160156 C 722.628906 639.820312 723.15625 639.382812 723.640625 639.292969 C 726.183594 638.765625 728.730469 638.636719 731.230469 639.292969 C 735.707031 640.433594 738.910156 643.199219 740.578125 647.5 C 743.5625 655.265625 742.726562 662.640625 737.683594 669.441406 C 736.9375 670.449219 736.144531 671.769531 734.609375 671.066406 C 733.25 670.449219 733.644531 669.003906 733.777344 667.863281 C 734.128906 664.613281 734.652344 661.410156 734.566406 658.121094 C 734.566406 655.882812 734.214844 653.6875 733.425781 651.582031 C 732.066406 647.9375 729.652344 646.269531 725.789062 646.226562 C 722.9375 646.226562 720.304688 646.972656 717.628906 647.894531 C 716.792969 648.203125 716.003906 648.554688 715.125 648.730469 C 713.546875 649.035156 712.667969 647.984375 713.195312 646.445312 C 713.328125 646.097656 713.546875 645.746094 713.765625 645.394531 C 717.628906 639.335938 719.292969 632.578125 719.46875 625.46875 C 719.46875 624.285156 719.339844 623.101562 719.03125 621.914062 C 718.328125 619.105469 716.484375 617.613281 713.632812 617.265625 C 711.613281 617.042969 709.640625 617.394531 707.710938 617.835938 C 705.910156 618.273438 704.15625 618.800781 702.398438 619.195312 C 700.554688 619.589844 699.152344 619.019531 698.492188 617.746094 C 697.792969 616.472656 698.054688 614.894531 699.503906 613.710938 C 702.96875 610.769531 705.734375 607.347656 707.621094 603.222656 C 709.070312 600.019531 710.167969 596.683594 710.253906 593.128906 C 710.253906 591.199219 710.035156 589.308594 709.246094 587.511719 C 708.234375 585.273438 707.007812 584.484375 704.550781 584.613281 C 701.785156 584.789062 699.285156 585.800781 696.871094 587.027344 C 696.429688 587.246094 696.035156 587.511719 695.640625 587.730469 C 693.621094 588.695312 692.394531 587.863281 692.527344 585.625 C 692.613281 584.527344 693.226562 583.691406 693.84375 582.859375 C 697.265625 577.945312 700.03125 572.632812 701.828125 566.886719 C 703.628906 561.226562 704.503906 555.433594 704.066406 549.464844 C 703.933594 547.621094 703.453125 545.867188 702.53125 544.242188 C 701.300781 542.136719 699.546875 541.039062 697.046875 541.039062 C 694.542969 541.039062 692.480469 541.566406 690.242188 542.179688 C 689.410156 542.398438 688.574219 542.707031 687.699219 542.398438 C 685.988281 541.828125 685.503906 540.949219 686.382812 539.371094 C 688.488281 535.726562 689.585938 531.734375 690.375 527.652344 C 691.296875 523.046875 691.734375 518.351562 691.035156 513.65625 C 690.636719 511.023438 689.980469 508.476562 688.488281 506.28125 C 686.910156 503.914062 685.679688 503.691406 683.308594 505.140625 C 681.949219 506.019531 680.851562 507.070312 680.0625 508.5625 C 678.746094 511.023438 677.339844 513.433594 675.9375 515.804688 C 675.410156 516.683594 674.839844 517.558594 674.183594 518.351562 C 673.523438 519.183594 672.691406 519.84375 671.503906 519.535156 C 670.453125 519.226562 670.058594 518.351562 669.925781 517.339844 C 669.75 516.023438 669.53125 514.664062 669.53125 513.304688 C 669.53125 510.582031 668.695312 508.125 667.644531 505.710938 C 667.46875 505.273438 667.203125 504.835938 666.984375 504.4375 C 665.316406 501.761719 663.78125 501.324219 661.015625 502.859375 C 660.269531 503.296875 659.523438 503.824219 658.824219 504.308594 C 658.164062 504.746094 657.550781 505.273438 656.890625 505.710938 C 655.53125 506.632812 654.082031 507.378906 652.460938 506.328125 C 651.230469 505.535156 650.878906 503.691406 651.714844 501.71875 C 654.875 494.300781 654.917969 486.535156 654.699219 478.722656 C 654.699219 476.96875 654.304688 475.257812 653.6875 473.589844 C 653.207031 472.140625 652.414062 470.867188 651.230469 469.859375 C 650.574219 469.289062 650.132812 469.421875 649.738281 470.167969 C 649.257812 471.175781 648.773438 472.183594 648.160156 473.105469 C 646.449219 475.738281 644.121094 477.582031 640.960938 478.242188 C 638.109375 478.855469 636.265625 477.230469 636.441406 474.335938 C 636.574219 472.578125 637.144531 470.910156 637.757812 469.246094 C 640.304688 462.574219 640.523438 455.726562 639.382812 448.75 C 639.117188 447.082031 638.769531 445.460938 637.933594 443.96875 C 636.878906 441.992188 635.433594 441.464844 633.328125 442.210938 C 631.484375 442.871094 629.992188 444.097656 628.585938 445.371094 C 625.691406 448.046875 623.410156 451.207031 621.347656 454.542969 C 618.84375 458.625 616.738281 462.925781 615.027344 467.402344 C 613.445312 471.570312 610.8125 472.492188 607.566406 469.15625 C 607.566406 469.15625 607.433594 469.070312 607.390625 468.980469 C 602.652344 464.898438 599.578125 464.59375 593.65625 467.621094 C 593.875 468.585938 594.707031 469.113281 595.367188 469.769531 C 611.648438 486.84375 627.929688 503.867188 644.164062 520.984375 C 653.996094 531.296875 663.519531 541.960938 672.910156 552.667969 C 674.136719 554.070312 675.410156 555.433594 675.804688 557.496094 C 676.421875 560.609375 674.445312 561.96875 672.074219 561.96875 C 669.707031 561.96875 667.46875 561.882812 665.140625 561.796875 C 664.746094 561.796875 664.351562 561.796875 663.957031 561.796875 C 663.167969 561.796875 662.773438 562.058594 662.773438 562.890625 L 662.773438 564.824219 C 662.640625 585.929688 663.34375 607.039062 663.035156 628.148438 C 662.816406 642.542969 662.640625 656.980469 661.894531 671.371094 C 661.585938 677.691406 662.246094 683.96875 662.289062 690.242188 C 662.289062 691.25 662.640625 691.734375 663.695312 691.691406 L 664.660156 691.691406 C 679.625 691.824219 694.585938 691.910156 709.597656 692.042969 C 711.703125 692.042969 712.535156 690.988281 712.097656 688.882812 C 711.570312 686.292969 710.867188 683.746094 709.507812 681.464844 C 707.664062 678.394531 705.820312 677.734375 702.488281 679.007812 C 700.117188 679.929688 697.835938 681.070312 695.949219 682.914062 C 694.808594 684.011719 693.710938 684.1875 692.746094 683.484375 C 691.691406 682.738281 691.515625 681.683594 691.824219 680.5 C 691.953125 679.972656 692.175781 679.449219 692.351562 678.921875 C 694.851562 671.941406 694.9375 664.878906 693.140625 657.769531 C 692.789062 656.453125 692.351562 655.179688 691.691406 653.996094 C 690.242188 651.363281 688.3125 650.394531 685.371094 650.878906 C 683.265625 651.230469 681.421875 652.0625 679.667969 653.25 C 677.339844 654.828125 675.324219 656.757812 673.609375 658.953125 C 673.214844 659.4375 672.820312 659.964844 672.425781 660.445312 C 671.988281 660.972656 671.417969 661.28125 670.757812 660.972656 C 670.058594 660.664062 669.96875 660.007812 670.058594 659.347656 C 670.058594 658.867188 670.1875 658.382812 670.363281 657.945312 C 672.25 652.546875 675.542969 648.289062 680.632812 645.570312 C 682.476562 644.605469 684.449219 643.945312 686.558594 643.8125 C 692.042969 643.417969 696.34375 645.832031 698.800781 650.792969 C 700.25 653.6875 700.90625 656.804688 701.125 660.007812 C 701.347656 663.253906 701.300781 666.546875 700.730469 669.792969 C 700.601562 670.496094 700.292969 671.152344 700.644531 671.898438 C 701.519531 671.988281 702.136719 671.417969 702.882812 671.152344 C 708.148438 669.222656 713.152344 670.847656 716.179688 675.585938 C 717.800781 678.132812 718.59375 680.941406 718.855469 683.921875 C 719.074219 686.074219 718.988281 688.222656 718.722656 690.375 C 718.546875 692.042969 718.59375 692.085938 720.304688 692.128906 C 725.480469 692.21875 730.660156 692.21875 735.839844 692.304688 C 752.46875 692.523438 769.144531 692.746094 785.777344 692.964844 C 788.628906 692.964844 790.429688 694.457031 790.429688 696.695312 C 790.429688 698.933594 788.628906 700.425781 785.820312 700.425781 C 755.410156 700.335938 724.957031 700.554688 694.542969 700.203125 C 684.1875 700.074219 673.832031 700.074219 663.472656 700.027344 C 662.902344 700.027344 662.332031 700.027344 661.804688 700.117188 C 656.585938 701.476562 651.1875 701.125 645.875 701.082031 C 623.410156 701.082031 600.941406 700.949219 578.515625 700.554688 C 560.832031 700.25 543.144531 700.074219 525.460938 699.851562 C 457.921875 698.933594 390.386719 699.105469 322.847656 698.800781 C 269.179688 698.535156 215.464844 698.011719 161.796875 697.132812 C 147.402344 696.914062 132.964844 696.78125 118.570312 696.472656 C 98.429688 696.035156 78.285156 695.683594 58.144531 694.761719 C 47.566406 694.28125 36.992188 693.710938 26.457031 692.699219 C 24.703125 692.523438 22.992188 692.347656 21.238281 692.085938 C 20.667969 692 19.964844 692.085938 19.570312 691.425781 C 20.050781 690.726562 20.839844 690.902344 21.542969 690.8125 C 33.042969 689.539062 44.582031 689.101562 56.125 688.75 C 97.945312 687.523438 139.765625 687.785156 181.585938 687.742188 C 185.710938 687.742188 185.1875 688.046875 185.140625 684.1875 C 184.964844 669.75 185.363281 655.355469 185.757812 640.960938 C 186.195312 626.304688 186.457031 611.648438 186.546875 596.988281 C 186.632812 580.578125 186.765625 564.164062 187.46875 547.796875 C 187.46875 546.699219 187.6875 545.601562 187.378906 544.417969 C 186.503906 544.59375 186.152344 545.25 185.667969 545.691406 C 184.527344 546.789062 183.429688 547.972656 182.070312 548.804688 C 180.269531 549.902344 178.734375 549.640625 177.417969 548.058594 C 177.066406 547.621094 176.761719 547.183594 176.367188 546.789062 C 174.917969 545.339844 174.917969 544.242188 176.277344 542.617188 C 202.519531 511.722656 228.675781 480.742188 255.445312 450.285156 C 268.257812 435.671875 281.027344 421.015625 294.191406 406.710938 C 295.070312 405.746094 295.378906 404.824219 295.289062 403.507812 C 294.191406 380.335938 293.359375 357.210938 293.578125 333.996094 L 293.578125 321.3125 C 293.578125 318.855469 293.578125 316.398438 294.28125 313.984375 C 293.402344 313.371094 292.394531 313.5 291.472656 313.371094 C 290.464844 313.238281 289.410156 313.152344 288.445312 312.753906 C 286.074219 311.789062 285.417969 308.9375 287.082031 307.09375 C 293.445312 300.203125 300.554688 294.238281 308.28125 288.96875 C 309.683594 288.050781 311.042969 287.039062 312.535156 286.335938 C 314.597656 285.371094 315.652344 283.75 316.222656 281.640625 C 318.371094 274.050781 320.566406 266.503906 322.761719 258.910156 C 332.019531 226.699219 341.410156 194.488281 351.679688 162.585938 C 353.742188 156.222656 355.847656 149.859375 358.484375 143.714844 C 358.921875 142.664062 359.140625 141.609375 359.054688 140.46875 C 358.613281 131.253906 358.613281 121.992188 358.65625 112.777344 L 358.65625 112.074219 C 358.746094 111.023438 358.351562 110.453125 357.210938 110.453125 C 353.523438 110.453125 349.882812 110.011719 346.28125 109.484375 C 345.011719 109.3125 343.78125 109.089844 342.507812 108.871094 C 341.71875 108.742188 341.0625 108.300781 340.535156 107.644531 C 339.171875 106.019531 339.261719 105.492188 341.015625 104.308594 C 342.554688 103.253906 344.265625 102.640625 346.105469 102.421875 C 349.617188 101.9375 353.085938 102.070312 356.59375 101.980469 C 358.085938 101.953125 358.863281 101.207031 358.921875 99.746094 C 359.054688 94.566406 359.316406 89.386719 359.886719 84.253906 C 360.019531 82.894531 360.238281 81.578125 360.546875 80.261719 C 360.808594 79.164062 360.894531 77.582031 362.476562 77.625 C 363.835938 77.625 364.011719 79.074219 364.230469 80.128906 C 364.625 82.015625 364.976562 83.902344 365.152344 85.789062 C 365.546875 90.308594 365.8125 94.828125 366.074219 99.394531 C 366.164062 101.003906 367.039062 101.792969 368.707031 101.761719 C 372.042969 101.761719 375.378906 101.675781 378.757812 101.675781 C 382.136719 101.675781 380.203125 101.675781 380.90625 101.71875 C 382.003906 101.808594 383.234375 101.71875 383.847656 102.902344 C 384.550781 104.175781 383.714844 105.230469 383.058594 106.195312 C 382.136719 107.554688 380.863281 108.476562 379.195312 108.828125 C 376.914062 109.3125 374.632812 109.53125 372.351562 109.707031 C 370.902344 109.835938 369.496094 109.96875 368.050781 110.011719 C 366.863281 110.011719 366.292969 110.539062 366.425781 111.769531 L 366.425781 112.953125 C 366.511719 121.378906 366.644531 129.847656 366.425781 138.273438 C 366.425781 139.414062 366.6875 140.46875 367.171875 141.476562 C 370.15625 148.234375 373.226562 154.992188 376.078125 161.839844 C 384.726562 182.726562 392.359375 204.011719 400.171875 225.25 C 408.421875 247.765625 416.539062 270.320312 425.054688 292.699219 C 425.140625 292.921875 425.230469 293.140625 425.316406 293.359375 C 426.105469 295.683594 426.546875 298.273438 427.820312 300.292969 C 429.046875 302.265625 431.242188 303.582031 432.910156 305.296875 C 436.859375 309.246094 440.765625 313.195312 444.320312 317.496094 C 445.242188 318.59375 446.164062 319.6875 446.734375 321.050781 C 447.652344 323.113281 446.511719 324.78125 444.273438 324.691406 C 442.914062 324.605469 441.597656 324.339844 440.28125 323.988281 C 437.867188 323.375 435.410156 323.289062 432.953125 322.980469 C 431.855469 322.847656 431.328125 323.113281 431.328125 324.339844 C 431.242188 334.609375 430.011719 344.835938 430.453125 355.148438 C 430.976562 366.6875 430.671875 378.230469 430.453125 389.769531 C 430.363281 396.132812 430.320312 402.496094 430.234375 408.90625 C 430.234375 410.28125 430.933594 411.027344 432.339844 411.144531 C 455.773438 413.25 478.988281 416.628906 502.070312 421.058594 C 520.765625 424.613281 539.414062 428.476562 558.023438 432.425781 C 559.46875 432.734375 560.742188 433.261719 561.53125 434.621094 C 561.75 435.015625 562.148438 435.367188 562.496094 435.671875 C 565.128906 437.867188 567.457031 440.371094 569.652344 443.046875 C 575.355469 449.9375 582.070312 455.859375 588.125 462.398438 C 588.257812 462.574219 588.519531 462.617188 588.695312 462.75 C 589.488281 462.355469 589.75 461.519531 590.320312 460.996094 C 593.785156 457.617188 597.957031 456.5625 602.652344 457.527344 C 604.230469 457.835938 605.679688 458.449219 607.082031 459.238281 C 608.429688 460 609.320312 459.605469 609.761719 458.054688 C 611.339844 452.175781 613.753906 446.644531 617.175781 441.554688 C 619.328125 438.351562 621.828125 435.453125 624.945312 433.171875 C 628.191406 430.800781 631.703125 429.308594 635.785156 429.398438 C 641.925781 429.574219 646.316406 432.644531 649.167969 437.957031 C 650.921875 441.246094 651.625 444.84375 651.933594 448.53125 C 652.152344 451.253906 652.195312 453.929688 652.0625 456.648438 C 651.976562 457.878906 652.285156 458.492188 653.644531 458.757812 C 657.726562 459.503906 660.445312 462.089844 662.15625 465.734375 C 663.429688 468.367188 663.867188 471.175781 663.957031 474.070312 C 664.089844 479.777344 663.121094 485.351562 661.761719 490.835938 C 661.585938 491.582031 661.367188 492.371094 661.148438 493.425781 C 667.25 492.414062 671.242188 495.003906 673.609375 500.3125 C 674.621094 500.09375 674.839844 499.347656 675.277344 498.824219 C 676.640625 497.242188 678.175781 495.839844 679.929688 494.742188 C 685.503906 491.363281 691.824219 492.285156 696.125 497.15625 C 699.414062 500.886719 700.820312 505.40625 701.171875 510.277344 C 701.695312 517.253906 700.25 523.878906 697.617188 530.332031 C 697.308594 531.03125 696.824219 531.734375 696.871094 532.570312 C 697.527344 533.007812 698.097656 532.570312 698.667969 532.394531 C 705.910156 530.59375 711.921875 534.015625 713.941406 541.257812 C 715.433594 546.65625 714.6875 552.007812 713.324219 557.320312 C 711.832031 562.980469 709.464844 568.289062 706.566406 573.335938 C 706.304688 573.820312 706.042969 574.347656 705.734375 574.785156 C 705.074219 575.707031 705.121094 576.320312 706.304688 576.757812 C 707.402344 577.15625 708.453125 577.8125 709.550781 578.25 C 713.898438 580.140625 716.089844 583.691406 716.925781 588.167969 C 717.714844 592.515625 717.011719 596.726562 715.695312 600.894531 C 714.816406 603.660156 713.632812 606.25 712.230469 608.75 C 712.007812 609.144531 711.789062 609.585938 711.394531 610.417969 L 711.394531 610.199219 Z M 435.367188 619.679688 C 434.882812 591.636719 434.488281 571.886719 434.796875 552.140625 C 434.882812 546.566406 434.445312 540.996094 434.3125 535.421875 C 434.3125 533.753906 433.699219 532.480469 432.382812 531.296875 C 424.792969 524.492188 417.507812 517.386719 410.484375 509.96875 C 393.28125 491.800781 376.386719 473.414062 359.578125 454.851562 C 354.3125 449.015625 349.3125 442.914062 343.738281 437.296875 C 332.460938 425.929688 321.007812 414.742188 310.386719 402.761719 C 309.332031 401.53125 309.289062 401.574219 308.28125 402.761719 C 304.109375 407.808594 299.984375 412.855469 295.816406 417.855469 C 278.789062 438.085938 260.972656 457.617188 243.375 477.363281 C 241.09375 479.910156 238.8125 482.496094 236.75 485.21875 C 227.140625 497.855469 216.957031 509.96875 206.117188 521.554688 C 202.125 525.8125 198.660156 530.460938 194.972656 534.9375 C 194.402344 535.640625 194.09375 536.386719 194.050781 537.308594 C 193.789062 545.03125 193.085938 552.710938 193.261719 560.480469 C 193.394531 566.140625 193.347656 571.800781 193.261719 577.460938 C 192.425781 613.535156 193.394531 649.605469 192.558594 685.679688 C 192.558594 687.523438 192.558594 687.566406 194.359375 687.652344 L 195.542969 687.652344 C 218.890625 687.652344 242.234375 687.742188 265.539062 687.785156 L 266.984375 687.785156 C 267.90625 687.785156 268.300781 687.390625 268.257812 686.511719 L 268.257812 684.84375 C 267.949219 674.796875 267.6875 664.789062 267.25 654.742188 C 266.457031 636.265625 266.722656 617.789062 268.695312 599.402344 C 269.488281 592.164062 270.714844 585.007812 273.390625 578.25 C 277.429688 567.894531 284.1875 560.082031 295.160156 556.703125 C 302.046875 554.597656 309.027344 554.640625 315.34375 558.285156 C 323.464844 562.9375 329.167969 569.738281 331.320312 579.085938 C 331.496094 579.789062 331.671875 580.488281 331.933594 581.148438 C 335.355469 589.925781 336.671875 599.140625 336.980469 608.488281 C 337.242188 617 337.460938 625.515625 337.769531 634.027344 C 338.253906 646.140625 338.691406 658.207031 339.394531 670.320312 C 339.746094 675.71875 340.007812 681.113281 340.007812 686.554688 C 340.007812 692 340.097656 688.3125 341.71875 688.398438 L 342.683594 688.398438 C 373.183594 688.707031 403.683594 688.96875 434.183594 689.277344 C 437.210938 689.277344 436.992188 689.496094 436.945312 686.425781 C 436.375 661.410156 435.628906 636.441406 435.453125 619.679688 Z M 442.257812 540.421875 C 442.257812 541.167969 442.167969 541.652344 442.125 542.089844 C 441.597656 548.453125 441.90625 554.816406 442.125 561.179688 C 442.914062 585.929688 442.695312 610.726562 442.914062 635.476562 C 443.046875 652.589844 442.914062 669.707031 442.914062 686.863281 C 442.914062 704.023438 443.660156 689.277344 445.195312 689.320312 L 446.644531 689.320312 C 457.222656 689.320312 467.839844 689.320312 478.417969 689.410156 C 498.648438 689.496094 518.878906 690.242188 539.109375 690.460938 C 577.113281 690.902344 615.070312 691.164062 653.074219 691.515625 C 656.367188 691.515625 656.234375 691.996094 656.144531 688.222656 C 655.839844 675.804688 655.574219 663.386719 655.269531 650.964844 C 654.785156 632.183594 655.269531 613.359375 655.269531 594.578125 L 655.269531 563.289062 C 655.269531 561.179688 655.269531 561.136719 653.03125 560.917969 C 650.003906 560.652344 647.019531 560.390625 643.988281 560.171875 C 632.316406 559.160156 620.644531 558.242188 609.015625 557.097656 C 598.484375 556.046875 587.949219 554.773438 577.375 554.464844 C 571.011719 554.292969 564.648438 553.808594 558.285156 553.238281 C 549.246094 552.449219 540.207031 551.394531 531.164062 550.605469 C 520.371094 549.683594 509.574219 548.847656 498.777344 548.058594 C 483.683594 546.960938 468.71875 544.679688 453.621094 543.320312 C 449.804688 542.96875 445.855469 542.835938 442.257812 540.421875 L 442.214844 540.421875 Z M 361.644531 443.441406 C 361.730469 444.492188 362.433594 444.890625 362.914062 445.371094 C 378.933594 461.871094 394.949219 478.417969 411.011719 494.917969 C 422.15625 506.371094 433.832031 517.386719 444.714844 529.101562 C 446.074219 530.550781 447.523438 531.253906 449.410156 531.558594 C 465.601562 534.105469 481.882812 536.210938 498.164062 538.230469 C 515.234375 540.378906 532.351562 542.046875 549.421875 543.933594 C 574.257812 546.65625 599.183594 548.542969 624.109375 550.691406 C 636.882812 551.789062 649.605469 553.148438 662.378906 554.421875 C 663.300781 554.511719 664.21875 554.773438 665.1875 554.421875 C 664.921875 553.457031 664.21875 553.019531 663.648438 552.492188 C 632.097656 520.984375 601.992188 488.070312 571.714844 455.332031 C 569.167969 452.570312 566.449219 450.023438 563.816406 447.347656 C 560.566406 444.097656 556.882812 442.035156 552.40625 440.851562 C 545.558594 439.097656 538.886719 436.507812 531.867188 435.542969 C 524.933594 434.578125 518 433.65625 511.066406 432.644531 C 495.53125 430.453125 479.996094 428.257812 464.636719 425.054688 C 453.886719 422.816406 443.089844 420.882812 432.164062 419.699219 C 430.847656 419.554688 430.175781 420.125 430.144531 421.410156 C 430.011719 427.644531 429.882812 433.832031 429.792969 440.0625 C 429.792969 442.34375 429.398438 444.625 429.664062 446.953125 C 429.882812 448.925781 428.566406 450.242188 426.546875 450.417969 C 425.84375 450.417969 425.097656 450.417969 424.394531 450.417969 C 416.671875 450.066406 409.082031 448.621094 401.488281 447.257812 C 396.089844 446.292969 390.824219 444.625 385.296875 444.230469 C 381.476562 443.921875 377.660156 443.617188 373.929688 442.78125 C 369.71875 441.859375 365.765625 443.527344 361.6875 443.484375 Z M 330.222656 648.15625 C 329.609375 635.609375 328.992188 625.46875 328.730469 615.246094 C 328.554688 609.277344 328.289062 603.308594 327.414062 597.386719 C 326.449219 591.152344 325.703125 584.921875 323.113281 579.085938 C 321.136719 574.652344 318.242188 571.097656 314.46875 568.160156 C 312.097656 566.269531 309.289062 565.4375 306.304688 565 C 300.207031 564.121094 295.160156 566.445312 290.683594 570.132812 C 284.890625 574.871094 280.675781 580.710938 278.746094 588.125 C 276.945312 594.972656 275.980469 601.859375 275.804688 608.882812 C 275.628906 617.484375 275.675781 626.085938 275.5 634.6875 C 275.105469 651.710938 274.882812 668.785156 275.5 685.808594 C 275.5 687.125 276.171875 687.800781 277.519531 687.828125 C 294.148438 688.003906 310.824219 688.136719 327.457031 688.269531 C 328.863281 688.269531 329.578125 687.566406 329.609375 686.160156 C 329.738281 677.957031 329.828125 669.75 329.957031 661.542969 C 330.046875 656.277344 330.355469 651.054688 330.222656 648.113281 Z M 304.726562 394.863281 C 305.03125 394.773438 305.164062 394.730469 305.296875 394.640625 C 308.191406 392.578125 309.378906 392.667969 311.964844 395.039062 C 314.90625 397.714844 317.890625 400.347656 320.785156 403.113281 C 331.054688 412.898438 340.839844 423.121094 350.847656 433.171875 C 353.875 436.199219 352.777344 435.761719 356.816406 435.148438 C 357.386719 435.058594 357.914062 435.058594 358.484375 434.972656 C 361.644531 434.578125 364.847656 434.488281 368.003906 434.53125 C 369.148438 434.53125 369.628906 434.09375 369.542969 432.996094 L 369.542969 432.03125 C 369.542969 395.738281 369.367188 359.449219 370.859375 323.15625 C 370.988281 319.425781 370.945312 315.695312 370.859375 311.921875 C 370.859375 310.34375 370.726562 310.296875 369.234375 310.386719 C 369.015625 310.386719 368.75 310.386719 368.53125 310.472656 C 355.9375 311.789062 343.300781 312.40625 330.660156 313.019531 C 321.839844 313.457031 313.019531 313.722656 304.15625 313.722656 C 295.289062 313.722656 302.003906 313.722656 302.09375 315.785156 L 302.09375 316.484375 C 302.53125 326.972656 303.144531 337.460938 303.453125 347.992188 C 303.890625 363.089844 304.109375 378.230469 304.460938 393.371094 C 304.460938 393.851562 304.375 394.335938 304.769531 394.863281 L 304.679688 394.863281 Z M 423.695312 443.484375 C 424 443.046875 423.914062 442.5625 423.914062 442.125 C 423.300781 421.191406 423.519531 400.214844 423.386719 379.28125 C 423.386719 369.714844 423.253906 360.148438 423.695312 350.628906 C 424.089844 341.628906 424.175781 332.632812 424 323.636719 C 424 321.445312 424 321.402344 421.894531 320.960938 C 411.230469 318.722656 400.65625 316.046875 390.167969 312.976562 C 386.394531 311.878906 382.53125 311.394531 378.714844 310.605469 C 377.617188 310.386719 377.265625 310.78125 377.308594 311.832031 C 377.398438 313.324219 377.441406 314.863281 377.441406 316.355469 C 377.441406 326.796875 377.089844 337.199219 377.132812 347.644531 C 377.132812 365.414062 376.78125 383.144531 376.429688 400.917969 C 376.210938 411.1875 375.949219 421.457031 375.730469 431.722656 C 375.730469 433.785156 375.730469 433.785156 377.660156 434.179688 C 379.941406 434.621094 382.179688 435.101562 384.460938 435.496094 C 397.144531 437.824219 409.871094 439.886719 422.332031 443.398438 C 422.816406 443.527344 423.253906 443.660156 423.738281 443.398438 Z M 417.683594 294.9375 C 417.8125 294.191406 417.507812 293.710938 417.332031 293.183594 C 411.40625 278.21875 406.226562 262.992188 400.742188 247.894531 C 391.703125 222.792969 382.488281 197.78125 374.0625 172.460938 C 371.429688 164.515625 369.101562 156.484375 365.722656 148.804688 C 365.503906 148.28125 365.460938 147.621094 364.539062 147.269531 C 364.671875 149.464844 364.757812 151.4375 364.933594 153.414062 C 365.285156 157.277344 365.769531 161.179688 366.074219 165.042969 C 367.214844 178.515625 367.960938 192.03125 368.75 205.546875 C 369.542969 219.546875 370.242188 233.546875 370.945312 247.542969 C 371.429688 257.460938 371.824219 267.421875 372.261719 277.386719 C 372.351562 279.402344 372.351562 279.449219 374.324219 279.796875 C 378.714844 280.632812 383.058594 281.730469 387.183594 283.351562 C 393.238281 285.722656 399.425781 287.785156 405.570312 289.9375 C 409.082031 291.164062 412.546875 292.65625 415.882812 294.324219 C 416.367188 294.542969 416.847656 294.9375 417.59375 294.894531 L 417.683594 294.894531 Z M 322.324219 282.5625 C 323.945312 282.476562 325.21875 282.386719 326.449219 282.300781 C 338.515625 281.554688 350.582031 280.542969 362.695312 280.457031 C 363.355469 280.457031 363.96875 280.457031 364.625 280.457031 C 365.679688 280.457031 366.292969 280.0625 366.117188 278.921875 C 366.117188 278.4375 366.117188 277.957031 366.03125 277.472656 C 365.59375 269.355469 365.066406 261.234375 364.714844 253.117188 C 363.96875 236.792969 363.265625 220.511719 362.652344 204.1875 C 362.039062 187.730469 361.292969 171.230469 361.46875 154.730469 C 361.46875 154.421875 361.644531 153.941406 360.984375 153.765625 C 349.355469 196.945312 335.621094 239.511719 322.277344 282.5625 Z M 295.464844 306.832031 C 321.972656 304.242188 348.476562 302.96875 375.070312 302.925781 C 374.984375 301.742188 374.324219 301.125 373.84375 300.425781 C 371.210938 296.429688 368.53125 292.480469 366.511719 288.136719 C 365.855469 286.644531 365.023438 286.292969 363.398438 286.335938 C 350.277344 286.730469 337.199219 288.398438 324.121094 289.015625 C 319.515625 289.234375 315.742188 290.726562 312.054688 293.269531 C 306.128906 297.308594 300.953125 302.222656 295.421875 306.832031 Z M 434.578125 315.5625 C 434.488281 314.816406 434.136719 314.554688 433.875 314.292969 C 430.496094 310.738281 427.027344 307.183594 423.695312 303.539062 C 422.597656 302.3125 421.324219 301.519531 419.832031 300.90625 C 410.96875 297.394531 402.015625 294.148438 393.0625 290.8125 C 386.875 288.488281 380.511719 286.777344 373.972656 285.679688 C 373.492188 285.589844 373.050781 285.414062 372.527344 285.679688 C 372.527344 285.898438 372.527344 286.160156 372.65625 286.335938 C 375.949219 291.691406 379.238281 297.046875 382.488281 302.398438 C 383.101562 303.363281 383.847656 303.804688 384.988281 303.933594 C 394.730469 305.164062 404.210938 307.402344 413.734375 309.683594 C 420.667969 311.351562 427.601562 313.148438 434.578125 315.519531 Z M 434.578125 315.5625 " fill-opacity="1" fill-rule="nonzero"/></g><g clip-path="url(#59b05c6662)"><path fill="#4e6146" d="M 168.203125 727.28125 C 171.582031 726.492188 174.523438 726.402344 177.417969 726.183594 C 194.183594 725.042969 210.988281 724.515625 227.796875 724.207031 C 274.226562 723.285156 320.65625 723.332031 367.085938 723.683594 C 387.402344 723.859375 407.675781 724.207031 427.996094 724.472656 C 428.609375 724.472656 429.265625 724.472656 429.882812 724.648438 C 431.460938 725 432.558594 726.269531 432.691406 727.808594 C 432.820312 729.476562 431.945312 730.921875 430.320312 731.539062 C 429.488281 731.886719 428.609375 731.84375 427.730469 731.84375 C 390.078125 732.238281 352.382812 732.414062 314.730469 732.109375 C 285.328125 731.886719 255.972656 731.582031 226.613281 730.703125 C 210.15625 730.222656 193.65625 729.648438 177.242188 728.332031 C 174.390625 728.113281 171.539062 727.984375 168.246094 727.238281 L 168.203125 727.238281 Z M 168.203125 727.28125 " fill-opacity="1" fill-rule="nonzero"/></g><path fill="#4e6146" d="M 433.171875 705.953125 C 449.980469 705.25 466.742188 704.898438 483.550781 704.636719 C 492.066406 704.503906 500.578125 704.855469 509.089844 704.988281 C 510.277344 704.988281 511.503906 705.074219 512.558594 705.734375 C 513.390625 706.214844 513.390625 706.832031 512.644531 707.445312 C 511.769531 708.191406 510.671875 708.410156 509.53125 708.585938 C 502.464844 709.859375 495.398438 710.957031 488.246094 711.65625 C 456.828125 714.773438 425.316406 715.914062 393.808594 715.871094 C 383.539062 715.871094 373.273438 715.605469 363.046875 714.640625 C 359.316406 714.289062 355.585938 713.894531 351.945312 713.105469 C 350.933594 712.886719 349.925781 712.667969 349.003906 712.097656 C 348.566406 711.832031 348.171875 711.527344 348.214844 711 C 348.214844 710.429688 348.742188 710.210938 349.179688 710.078125 C 349.792969 709.945312 350.410156 709.816406 351.066406 709.769531 C 368.136719 708.804688 385.253906 707.972656 402.367188 707.269531 C 412.636719 706.832031 422.902344 706.347656 433.128906 705.867188 L 433.128906 705.953125 Z M 433.171875 705.953125 " fill-opacity="1" fill-rule="nonzero"/><path fill="#4e6146" d="M 206.515625 622.75 C 206.164062 614.148438 205.855469 605.546875 206.953125 596.988281 C 207.261719 594.621094 207.699219 592.25 208.578125 590.011719 C 211.121094 583.5625 215.730469 579.390625 222.488281 577.769531 C 226.261719 576.847656 229.554688 577.945312 232.359375 580.621094 C 234.292969 582.464844 235.652344 584.703125 236.53125 587.203125 C 238.375 592.339844 239.339844 597.648438 239.820312 603.046875 C 240.917969 615.464844 240.613281 627.882812 239.164062 640.257812 C 238.8125 643.15625 238.988281 645.964844 239.25 648.816406 C 239.734375 653.863281 238.152344 655.707031 233.0625 655.835938 C 231.617188 655.835938 230.210938 655.835938 228.761719 655.75 C 224.945312 655.574219 221.128906 656.058594 217.351562 656.453125 C 215.859375 656.628906 214.324219 656.757812 212.832031 656.671875 C 209.453125 656.410156 207.875 654.960938 207.65625 651.625 C 207.214844 645.746094 206.820312 639.863281 206.558594 633.984375 C 206.382812 630.253906 206.558594 626.523438 206.558594 622.75 Z M 214.195312 622.222656 L 214.195312 635.609375 C 214.195312 638.722656 214.195312 641.839844 214.324219 644.910156 C 214.324219 646.972656 214.414062 646.972656 216.519531 646.972656 C 221.128906 646.972656 225.734375 647.0625 230.386719 647.105469 C 231.585938 647.105469 232.15625 646.476562 232.097656 645.21875 C 231.835938 641.179688 231.835938 637.097656 231.878906 633.0625 C 232.011719 625.910156 231.964844 618.710938 231.746094 611.558594 C 231.570312 606.382812 231.617188 601.203125 230.472656 596.113281 C 229.992188 594.003906 229.378906 591.941406 228.0625 590.1875 C 224.769531 585.753906 218.539062 586.28125 216.082031 591.152344 C 215.640625 591.988281 215.335938 592.910156 215.113281 593.832031 C 214.457031 596.464844 214.195312 599.183594 214.195312 601.859375 Z M 214.195312 622.222656 " fill-opacity="1" fill-rule="nonzero"/><path fill="#4e6146" d="M 374.238281 618.535156 C 374.5 611.121094 374.808594 603.746094 374.367188 596.332031 C 374.148438 592.734375 374.457031 589.179688 375.160156 585.625 C 376.695312 577.855469 380.996094 573.863281 388.804688 572.808594 C 391.265625 572.457031 393.722656 572.632812 396.136719 573.203125 C 400.480469 574.257812 403.246094 576.933594 404.296875 581.324219 C 404.824219 583.429688 404.910156 585.582031 405.175781 587.6875 C 406.710938 600.851562 406.886719 614.0625 406.535156 627.269531 C 406.359375 634.511719 406.402344 641.75 405.832031 648.992188 C 405.613281 651.933594 405.175781 652.589844 402.234375 653.117188 C 394.730469 654.476562 387.226562 654.785156 379.679688 653.425781 C 375.949219 652.765625 375.378906 652.152344 375.027344 648.554688 C 374.367188 641.96875 374.105469 635.386719 374.191406 628.761719 L 374.191406 618.492188 L 374.238281 618.492188 Z M 380.863281 614.675781 L 380.863281 635.433594 C 380.863281 638.066406 380.953125 640.699219 381.652344 643.242188 C 382.09375 644.867188 383.015625 645.875 384.769531 646.050781 C 388.015625 646.359375 391.265625 646.578125 394.511719 645.875 C 399.425781 644.824219 400.65625 643.332031 400.609375 638.371094 L 400.609375 637.671875 C 400.261719 624.945312 400.347656 612.21875 399.515625 599.492188 C 399.207031 594.75 398.375 590.1875 397.1875 585.625 C 396.792969 584.089844 396.179688 582.597656 395.214844 581.324219 C 394.46875 580.359375 393.546875 579.613281 392.273438 579.4375 C 387.972656 578.820312 383.496094 581.675781 382.3125 585.84375 C 381.960938 587.117188 381.652344 588.476562 381.609375 589.835938 C 381.128906 598.085938 380.335938 606.335938 380.953125 614.632812 L 380.863281 614.632812 Z M 380.863281 614.675781 " fill-opacity="1" fill-rule="nonzero"/><path fill="#4e6146" d="M 307.316406 515.453125 C 292.21875 515.453125 280.152344 503.296875 280.152344 488.246094 C 280.152344 473.195312 296.34375 460.820312 307.226562 460.949219 C 322.324219 461.125 334.171875 473.105469 334.171875 488.378906 C 334.171875 503.648438 322.324219 515.542969 307.316406 515.496094 Z M 307.269531 507.292969 C 317.933594 507.292969 326.886719 498.691406 326.972656 488.289062 C 327.0625 477.84375 318.199219 469.113281 307.621094 468.980469 C 293.929688 468.847656 288.179688 479.644531 288.136719 488.070312 C 288.136719 498.558594 296.78125 507.203125 307.269531 507.246094 Z M 307.269531 507.292969 " fill-opacity="1" fill-rule="nonzero"/><path fill="#4e6146" d="M 625.734375 624.285156 C 625.996094 632.316406 626.347656 641.574219 626.65625 650.792969 C 626.65625 652.632812 626.65625 654.433594 626.65625 656.277344 C 626.566406 659.390625 625.734375 660.664062 621.828125 661.761719 C 619.285156 662.464844 616.652344 662.550781 614.015625 662.464844 C 609.804688 662.289062 605.59375 662.070312 601.378906 661.761719 C 597.957031 661.5 596.945312 660.578125 596.289062 657.199219 C 595.628906 653.820312 595.277344 650.441406 595.191406 647.015625 C 595.058594 641.75 594.882812 636.527344 594.753906 631.261719 C 594.488281 618.582031 595.191406 605.941406 596.507812 593.347656 C 596.992188 588.785156 598.308594 584.4375 600.851562 580.578125 C 603.308594 576.804688 606.6875 574.300781 611.207031 573.554688 C 614.324219 573.03125 617 573.863281 619.371094 575.96875 C 622.707031 578.953125 624.109375 582.859375 624.769531 587.117188 C 625.296875 590.757812 625.472656 594.445312 625.339844 598.085938 C 625.078125 606.46875 625.777344 614.808594 625.777344 624.328125 Z M 619.984375 633.675781 L 619.765625 633.675781 C 619.765625 627.882812 620.117188 622.046875 619.679688 616.253906 C 618.933594 606.644531 617.703125 597.121094 616.695312 587.511719 C 616.5625 586.324219 616.253906 585.183594 615.683594 584.089844 C 614.542969 581.9375 613.226562 581.410156 610.945312 582.246094 C 608.574219 583.078125 606.953125 584.789062 605.679688 586.898438 C 604.054688 589.660156 603.132812 592.734375 602.652344 595.894531 C 602.039062 600.019531 601.992188 604.144531 601.863281 608.269531 C 601.511719 618.710938 602.210938 629.113281 602.386719 639.511719 C 602.386719 642.9375 602.5625 646.359375 602.609375 649.78125 C 602.609375 650.878906 603.003906 651.363281 604.101562 651.40625 C 605.371094 651.40625 606.644531 651.625 607.917969 651.800781 C 611.296875 652.195312 614.675781 652.898438 618.140625 652.546875 C 619.898438 652.371094 619.941406 652.414062 619.941406 650.570312 L 619.941406 633.632812 L 619.984375 633.632812 Z M 619.984375 633.675781 " fill-opacity="1" fill-rule="nonzero"/><path fill="#4e6146" d="M 536.167969 619.238281 C 536.957031 609.585938 536.519531 599.710938 537.175781 589.878906 C 537.351562 587.511719 537.703125 585.140625 538.273438 582.816406 C 540.335938 574.257812 553.152344 567.542969 562.453125 574.960938 C 564.605469 576.671875 565.832031 578.953125 566.359375 581.585938 C 566.796875 583.605469 566.886719 585.667969 567.019531 587.730469 C 568.378906 606.382812 568.816406 625.074219 568.335938 643.769531 C 568.246094 647.015625 567.808594 650.265625 567.589844 653.511719 C 567.5 655.222656 566.625 656.144531 565.042969 656.539062 C 564.339844 656.714844 563.683594 656.980469 562.980469 657.066406 C 556.882812 657.726562 550.78125 658.121094 544.636719 657.242188 C 541.917969 656.847656 539.632812 655.882812 538.144531 653.335938 C 537.441406 652.109375 537.132812 650.835938 537.089844 649.476562 C 536.738281 639.46875 536.429688 629.417969 536.082031 619.195312 L 536.167969 619.195312 Z M 561.753906 622.53125 C 561.753906 616.472656 562.015625 610.460938 561.488281 604.40625 C 561.136719 600.367188 560.832031 596.332031 560.65625 592.25 C 560.480469 588.386719 559.074219 584.964844 557.1875 581.71875 C 555.476562 578.777344 552.929688 578.339844 550.167969 580.359375 C 548.367188 581.675781 547.226562 583.472656 546.4375 585.492188 C 544.726562 589.792969 543.628906 594.3125 543.539062 598.964844 C 543.277344 615.113281 543.1875 631.261719 543.015625 647.414062 C 543.015625 648.554688 543.585938 649.125 544.726562 649.125 C 549.902344 649.125 555.082031 649.253906 560.214844 649.519531 C 561.882812 649.605469 561.925781 649.519531 561.882812 647.808594 C 561.578125 639.382812 561.796875 630.957031 561.796875 622.53125 Z M 561.753906 622.53125 " fill-opacity="1" fill-rule="nonzero"/><path fill="#4e6146" d="M 506.855469 616.914062 C 506.503906 629.683594 506.371094 640.828125 505.710938 651.933594 C 505.539062 654.785156 504.527344 655.96875 501.71875 656.320312 C 499.347656 656.628906 496.9375 656.628906 494.566406 656.496094 C 491.230469 656.320312 487.894531 656.101562 484.5625 655.882812 C 483.59375 655.882812 482.671875 655.574219 481.707031 655.488281 C 478.769531 655.265625 477.539062 653.074219 477.40625 650.441406 C 476.925781 642.101562 477.101562 633.71875 477.496094 625.382812 C 478.023438 614.5 478.417969 603.617188 478.988281 592.6875 C 479.25 587.6875 479.558594 582.683594 480.875 577.769531 C 482.191406 572.855469 485.175781 569.078125 489.167969 566.140625 C 492.722656 563.550781 497.242188 564.164062 500.578125 567.148438 C 503.957031 570.175781 505.449219 573.90625 506.019531 578.425781 C 507.773438 591.769531 506.941406 605.152344 506.855469 616.871094 Z M 484.691406 622.398438 C 484.515625 629.550781 483.683594 637.800781 484.253906 646.09375 C 484.386719 648.15625 484.339844 648.15625 486.359375 648.246094 C 490.660156 648.421875 494.960938 648.640625 499.175781 649.34375 C 500.972656 649.648438 500.972656 649.605469 501.015625 647.71875 C 501.191406 636.265625 501.238281 624.8125 501.585938 613.359375 C 501.808594 605.765625 501.367188 598.261719 500.796875 590.714844 C 500.445312 586.019531 499.394531 581.453125 497.8125 577.023438 C 497.417969 575.882812 496.980469 574.785156 496.320312 573.777344 C 495.179688 572.019531 494.476562 571.84375 492.546875 572.632812 C 489.738281 573.777344 488.511719 576.1875 487.808594 578.867188 C 486.007812 585.582031 484.867188 592.382812 484.78125 599.359375 C 484.691406 606.6875 484.78125 614.015625 484.78125 622.441406 L 484.691406 622.441406 Z M 484.691406 622.398438 " fill-opacity="1" fill-rule="nonzero"/><path fill="#4e6146" d="M 320.171875 376.648438 C 320.65625 364.625 321.355469 352.644531 322.675781 340.664062 C 322.894531 338.691406 323.246094 336.714844 323.902344 334.828125 C 325.175781 331.273438 327.589844 328.730469 331.011719 327.191406 C 335.355469 325.304688 339.746094 326.140625 343.078125 329.519531 C 345.933594 332.414062 347.292969 336.058594 347.996094 339.917969 C 348.785156 344.394531 348.917969 348.960938 349.179688 353.480469 C 349.925781 365.546875 350.101562 377.660156 350.234375 389.769531 C 350.234375 392.578125 350.234375 395.34375 349.925781 398.109375 C 349.53125 401.3125 348.609375 402.144531 345.449219 402.015625 C 344.222656 402.015625 343.078125 402.234375 341.894531 402.367188 C 336.585938 402.9375 331.230469 403.066406 325.921875 402.804688 C 321.707031 402.585938 319.996094 401.882812 320.128906 396.660156 C 320.261719 389.992188 320.128906 383.277344 320.128906 376.605469 Z M 343.035156 368.53125 C 343.035156 367.347656 343.035156 366.160156 343.035156 364.933594 C 342.730469 357.867188 342.421875 350.800781 342.027344 343.738281 C 341.9375 342.246094 341.71875 340.710938 341.324219 339.261719 C 340.796875 337.460938 339.832031 335.925781 338.472656 334.652344 C 336.277344 332.679688 334.214844 332.546875 331.800781 334.257812 C 330.089844 335.441406 329.035156 337.109375 328.464844 339.085938 C 327.148438 343.605469 326.492188 348.257812 326.710938 352.996094 C 326.972656 358.964844 326.929688 364.933594 326.710938 370.902344 C 326.492188 378.273438 326.273438 385.691406 326.054688 393.0625 C 326.054688 394.949219 326.054688 394.992188 327.851562 394.863281 C 332.371094 394.511719 336.890625 394.117188 341.414062 394.378906 C 342.332031 394.378906 342.730469 394.027344 342.683594 393.105469 L 342.683594 391.4375 C 342.683594 383.804688 342.683594 376.167969 343.035156 368.53125 Z M 343.035156 368.53125 " fill-opacity="1" fill-rule="nonzero"/><path fill="#4e6146" d="M 412.414062 371.429688 C 412.546875 380.597656 411.714844 389.726562 411.449219 398.855469 C 411.320312 403.464844 410.308594 404.164062 405.65625 403.859375 C 402.324219 403.636719 398.988281 403.683594 395.695312 402.980469 C 393.984375 402.628906 392.316406 402.101562 390.648438 401.621094 C 389.070312 401.136719 388.28125 400.082031 388.0625 398.546875 C 387.929688 397.582031 387.839844 396.660156 387.839844 395.695312 C 388.191406 378.757812 388.457031 361.773438 391.042969 344.964844 C 391.441406 342.464844 391.964844 339.964844 392.449219 337.460938 C 392.800781 335.664062 393.503906 333.953125 394.511719 332.414062 C 396.660156 329.082031 400.742188 327.894531 404.339844 329.5625 C 407.324219 330.96875 409.210938 333.335938 410.441406 336.320312 C 411.84375 339.699219 412.503906 343.253906 412.242188 346.851562 C 411.714844 355.058594 412.371094 363.222656 412.460938 371.429688 Z M 405.4375 397.671875 C 405.878906 397.1875 405.832031 396.792969 405.789062 396.398438 C 405.789062 387.136719 405.921875 377.921875 406.183594 368.707031 C 406.402344 361.640625 406.578125 354.53125 405.878906 347.46875 C 405.527344 343.867188 404.691406 340.402344 403.15625 337.109375 C 402.015625 334.652344 400.214844 334.609375 398.636719 336.847656 C 398.328125 337.285156 398.066406 337.8125 397.847656 338.296875 C 396.925781 340.269531 396.484375 342.375 396.355469 344.527344 C 395.566406 357.824219 394.773438 371.078125 393.984375 384.375 C 393.765625 387.796875 393.632812 391.21875 393.457031 394.640625 C 393.457031 395.386719 393.371094 396.132812 394.46875 396.132812 C 398.242188 396.132812 401.882812 396.660156 405.394531 397.714844 L 405.4375 397.714844 Z M 405.4375 397.671875 " fill-opacity="1" fill-rule="nonzero"/></svg>