<svg xmlns="http://www.w3.org/2000/svg" xmlns:xlink="http://www.w3.org/1999/xlink" width="567" zoomAndPan="magnify" viewBox="0 0 425.25 595.499986" height="794" preserveAspectRatio="xMidYMid meet" version="1.0"><defs><filter x="0%" y="0%" width="100%" height="100%" id="665458311a"><feColorMatrix values="0 0 0 0 1 0 0 0 0 1 0 0 0 0 1 0 0 0 1 0" color-interpolation-filters="sRGB"/></filter><clipPath id="cfa92fd17c"><path d="M 0 0.273438 L 424.5 0.273438 L 424.5 594.726562 L 0 594.726562 Z M 0 0.273438 " clip-rule="nonzero"/></clipPath><clipPath id="3dccfa8610"><path d="M 0 0.273438 L 424.5 0.273438 L 424.5 594.726562 L 0 594.726562 Z M 0 0.273438 " clip-rule="nonzero"/></clipPath><mask id="a7eecb325f"><g filter="url(#665458311a)"><rect x="-93.555" width="612.36" fill="#000000" y="-131.009997" height="857.51998" fill-opacity="0.82"/></g></mask><clipPath id="185932fc5f"><path d="M 0.71875 0.191406 L 286 0.191406 L 286 496 L 0.71875 496 Z M 0.71875 0.191406 " clip-rule="nonzero"/></clipPath><clipPath id="eeb765ea5c"><rect x="0" width="287" y="0" height="497"/></clipPath><clipPath id="29d0011260"><rect x="0" width="425" y="0" height="595"/></clipPath></defs><g clip-path="url(#cfa92fd17c)"><path fill="#ffffff" d="M 0 0.273438 L 424.5 0.273438 L 424.5 594.726562 L 0 594.726562 Z M 0 0.273438 " fill-opacity="1" fill-rule="nonzero"/><g transform="matrix(1, 0, 0, 1, 0, -0.000000000000041578)"><g clip-path="url(#29d0011260)"><g clip-path="url(#3dccfa8610)"><path fill="#ffffff" d="M 0 0.273438 L 424.554688 0.273438 L 424.554688 594.800781 L 0 594.800781 Z M 0 0.273438 " fill-opacity="1" fill-rule="nonzero"/></g><g mask="url(#a7eecb325f)"><g transform="matrix(1, 0, 0, 1, 69, 48)"><g clip-path="url(#eeb765ea5c)"><g clip-path="url(#185932fc5f)"><path fill="#4e6146" d="M 197.25 128.261719 C 199.828125 126.179688 202.234375 124.398438 205.109375 122.550781 C 262.445312 88.1875 259.902344 74.257812 281.558594 14.90625 C 282.910156 11.109375 284.5625 7.378906 285.882812 3.550781 C 286.246094 2.164062 285.320312 0.710938 283.902344 0.578125 C 282.121094 0.480469 280.996094 2.164062 279.644531 3.152344 C 270.070312 11.175781 259.375 17.613281 249.804688 25.796875 C 233.429688 39.53125 220.621094 57.257812 211.148438 76.300781 C 205.4375 88.714844 201.574219 101.953125 197.613281 115.023438 C 196.824219 117.5 196.03125 120.007812 194.742188 122.285156 C 196.523438 104.03125 197.316406 85.644531 197.054688 67.226562 C 197.8125 61.710938 205.570312 26.128906 192.53125 33.09375 C 189.558594 36.394531 190.816406 41.28125 190.914062 45.339844 C 191.804688 56.992188 193.125 68.644531 192.992188 80.363281 C 191.96875 111.457031 188.703125 142.554688 182.695312 173.121094 C 182 171.335938 181.375 169.554688 181.042969 167.640625 C 179.65625 158.363281 180.746094 148.792969 180.84375 139.382812 C 182 105.976562 172.660156 76.664062 155.757812 48.113281 C 150.378906 39.296875 145.589844 30.15625 140.835938 21.011719 C 139.484375 18.832031 138.59375 15.992188 136.28125 14.609375 C 133.675781 13.484375 132.386719 16.324219 132.652344 18.46875 C 132.453125 28.304688 131.792969 38.109375 131.363281 47.949219 C 129.714844 93.039062 132.816406 118.589844 162.789062 154.007812 C 168.234375 161.105469 173.351562 168.53125 177.378906 176.519531 C 178.304688 178.566406 179.128906 180.644531 179.65625 182.824219 C 179.722656 183.453125 179.921875 184.078125 180.285156 184.574219 C 179.261719 189.261719 178.140625 193.917969 176.984375 198.605469 C 167.410156 235.410156 154.371094 271.355469 138.164062 305.851562 C 142.257812 261.683594 142.917969 223.03125 121.890625 181.902344 C 115.949219 169.027344 107.664062 157.175781 100.894531 144.699219 C 97.332031 138.691406 94.394531 132.289062 90.828125 126.28125 C 89.707031 123.902344 86.339844 122.945312 85.347656 125.882812 C 85.050781 127.335938 85.117188 128.820312 85.085938 130.304688 C 84.984375 140.210938 84.851562 150.144531 84.789062 160.046875 C 83.5 202.367188 87.726562 235.804688 114.265625 270.464844 C 119.8125 278.71875 125.917969 286.773438 129.183594 296.246094 C 131.265625 302.222656 134.269531 308.425781 133.839844 314.929688 C 117.53125 348.304688 98.253906 380.222656 76.335938 410.195312 C 79.503906 402.40625 81.816406 394.285156 83.894531 386.132812 C 93.238281 353.648438 85.414062 319.78125 75.972656 288.226562 C 72.539062 276.539062 68.214844 265.050781 65.773438 253.101562 C 65.34375 250.726562 65.179688 248.285156 64.980469 245.875 C 64.914062 243.992188 64.550781 241.316406 62.109375 241.484375 C 59.269531 241.847656 59.335938 247.722656 58.3125 250.097656 C 57.324219 253.730469 56.332031 257.359375 55.34375 260.992188 C 43.261719 302.519531 40.585938 345.199219 55.375 386.460938 C 58.082031 395.539062 62.835938 404.519531 64.683594 413.960938 C 65.148438 416.699219 65.445312 419.503906 65.246094 422.3125 C 65.113281 423.269531 64.75 424.488281 64.75 425.546875 C 56.332031 436.371094 47.550781 446.902344 38.441406 457.136719 C 29.695312 466.808594 20.75 476.3125 10.8125 484.765625 C 8.105469 487.007812 5.367188 489.1875 2.59375 491.332031 C 1.042969 492.058594 0.25 494.238281 1.769531 495.425781 C 4.476562 498.363281 22.070312 480.242188 25.765625 477.039062 C 36.492188 466.214844 46.695312 454.925781 56.433594 443.238281 C 56.695312 443.304688 56.960938 443.304688 57.289062 443.273438 C 62.273438 442.183594 67.359375 441.523438 72.410156 442.546875 C 79.042969 443.402344 85.910156 446.042969 92.644531 447.066406 C 96.308594 447.5625 100.003906 447.828125 103.703125 447.894531 C 136.152344 449.246094 155.230469 425.976562 177.347656 406.5 C 182.628906 402.007812 188.207031 397.917969 193.984375 394.121094 C 195.402344 392.734375 194.214844 390.257812 192.300781 390.292969 C 189.394531 390.390625 186.457031 390.652344 183.550781 390.6875 C 163.285156 391.015625 142.160156 389.167969 123.046875 397.421875 C 103.769531 404.75 90.894531 421.78125 73.398438 431.949219 C 70.527344 433.566406 67.191406 434.753906 63.859375 435.117188 C 63.5625 435.152344 63.296875 435.183594 63 435.183594 C 63.5625 434.492188 64.089844 433.832031 64.652344 433.136719 C 82.246094 410.558594 98.550781 386.792969 113.273438 362.035156 C 114.265625 361.605469 115.289062 360.8125 116.246094 360.515625 C 121.296875 358.699219 126.710938 358.46875 132.023438 358.304688 C 171.140625 358.699219 195.074219 359.527344 225.871094 331.46875 C 234.488281 324.007812 242.804688 316.316406 250.859375 308.261719 C 253.003906 306.082031 255.316406 304.035156 257.328125 301.726562 C 258.582031 300.175781 257.394531 297.863281 255.480469 297.796875 C 232.902344 301.925781 209.332031 302.550781 187.644531 310.703125 C 168.765625 317.902344 150.90625 327.441406 135.292969 340.347656 C 130.835938 343.8125 126.480469 347.378906 121.957031 350.777344 C 120.832031 351.605469 119.644531 352.429688 118.390625 353.222656 C 125.222656 341.335938 131.660156 329.222656 137.734375 316.945312 C 137.800781 316.777344 137.898438 316.644531 137.964844 316.480469 C 137.964844 316.480469 137.964844 316.480469 137.964844 316.449219 C 148.792969 294.464844 158.332031 271.851562 166.421875 248.746094 C 167.507812 247.953125 168.566406 246.898438 169.621094 246.5 C 173.878906 244.386719 178.535156 243.265625 183.058594 241.8125 C 207.253906 234.714844 229.140625 219.929688 244.882812 200.222656 C 253.566406 189.097656 260.464844 176.386719 267.761719 164.273438 C 272.085938 157.078125 276.476562 149.914062 281.558594 143.246094 C 282.25 142.289062 282.976562 141.398438 283.671875 140.441406 C 285.1875 138.460938 282.84375 135.953125 280.765625 137.140625 C 280.140625 137.46875 279.511719 137.765625 278.851562 138.0625 C 258.253906 146.679688 238.085938 157.144531 220.753906 171.371094 C 208.671875 181.570312 198.769531 194.28125 190.550781 207.746094 C 184.839844 217.054688 180.152344 227.089844 173.980469 236.101562 C 172.59375 237.886719 170.910156 239.402344 169.160156 240.789062 C 181.109375 205.039062 189.558594 168.234375 193.882812 130.835938 C 195.039062 130.175781 196.097656 128.953125 197.25 128.261719 Z M 238.84375 93.238281 C 232.636719 99.046875 225.738281 103.933594 218.675781 108.585938 C 221.777344 105.550781 224.78125 102.445312 227.6875 99.210938 C 248.84375 76.5 259.277344 46.890625 274.726562 20.417969 C 265.613281 46.199219 259.375 74.222656 238.84375 93.238281 Z M 215.503906 77.457031 C 222.636719 63.296875 231.78125 49.960938 242.671875 38.441406 C 253.003906 27.546875 265.679688 19.460938 277.5625 10.449219 C 277.300781 10.746094 277.003906 11.074219 276.738281 11.371094 C 274 14.507812 271.457031 17.808594 268.949219 21.109375 C 258.089844 35.105469 248.449219 49.960938 238.84375 64.816406 C 230.855469 77.324219 222.109375 89.339844 212.765625 100.894531 C 209.265625 105.382812 205.835938 109.90625 202.402344 114.429688 C 206.195312 101.953125 209.992188 89.339844 215.503906 77.457031 Z M 213.625 103.734375 C 229.699219 84.390625 242.773438 62.867188 256.769531 42.003906 C 261.125 35.734375 265.582031 29.496094 270.234375 23.421875 C 258.617188 44.21875 249.671875 66.628906 235.476562 85.910156 C 229.535156 94.128906 222.570312 101.523438 215.273438 108.519531 C 212.601562 111.0625 209.894531 113.570312 207.121094 115.980469 C 205.238281 117.167969 203.390625 118.355469 201.542969 119.578125 C 205.535156 114.328125 209.53125 109.015625 213.625 103.734375 Z M 142.554688 33.753906 C 149.089844 48.871094 155.097656 64.289062 160.378906 79.867188 C 167.640625 103.4375 171.601562 128.027344 175.300781 152.421875 C 168.402344 135.027344 160.117188 118.125 155.527344 99.90625 C 153.183594 90.429688 150.9375 80.957031 149.222656 71.382812 C 146.945312 57.882812 145.0625 44.21875 141.136719 31.078125 C 141.5625 31.96875 142.058594 32.863281 142.554688 33.753906 Z M 159.6875 142.917969 C 131.363281 108.554688 134.699219 70.855469 136.644531 29.824219 C 141.464844 63.757812 139.980469 99.277344 156.121094 130.539062 C 160.445312 139.746094 165.660156 148.496094 170.710938 157.308594 C 167.210938 152.421875 163.417969 147.703125 159.6875 142.917969 Z M 176.125 161.863281 C 174.410156 158.828125 172.625 155.824219 170.875 152.820312 C 166.1875 144.898438 161.832031 136.742188 157.804688 128.457031 C 143.28125 99.671875 143.675781 67.058594 139.878906 35.699219 C 145.128906 55.804688 146.8125 76.730469 152.257812 96.835938 C 157.277344 119.480469 168.597656 139.945312 176.125 161.730469 C 176.160156 161.832031 176.191406 161.898438 176.222656 161.996094 C 176.191406 161.960938 176.160156 161.929688 176.125 161.863281 Z M 176.289062 142.785156 C 175.300781 136.808594 174.277344 130.867188 173.21875 124.894531 C 170.941406 112.449219 168.53125 99.9375 165.230469 87.722656 C 161.601562 75.445312 157.277344 63.363281 152.523438 51.445312 C 153.28125 52.765625 154.042969 54.054688 154.800781 55.339844 C 165.132812 74.289062 173.484375 94.820312 175.464844 116.476562 C 176.6875 125.222656 176.519531 134.003906 176.289062 142.785156 Z M 112.183594 443.207031 C 105.75 443.800781 99.246094 443.402344 92.808594 442.613281 C 91.585938 442.414062 90.398438 442.148438 89.175781 441.851562 C 109.117188 440.070312 128.558594 433.46875 145.855469 423.332031 C 152.492188 419.371094 158.894531 415.148438 165.496094 411.1875 C 149.847656 425.742188 134.367188 440.863281 112.183594 443.207031 Z M 107.300781 411.417969 C 131.464844 393.03125 155.558594 395.242188 183.847656 395.042969 C 160.015625 399.566406 134.863281 400.921875 113.273438 412.902344 C 102.183594 418.644531 92.246094 426.371094 81.222656 432.246094 C 81.1875 432.246094 81.15625 432.28125 81.15625 432.28125 C 90.332031 426.074219 98.355469 418.019531 107.300781 411.417969 Z M 112.976562 415.839844 C 132.585938 404.417969 155.824219 402.371094 177.839844 398.542969 C 162.394531 404.289062 145.921875 407.125 130.703125 413.5625 C 113.144531 420.496094 97.164062 431.421875 78.84375 436.371094 C 91.09375 429.9375 108.027344 418.019531 112.976562 415.839844 Z M 105.617188 427.988281 C 120.933594 420.265625 136.480469 412.871094 153.183594 408.578125 C 154.207031 408.25 166.550781 405.011719 176.09375 401.8125 C 175.265625 402.503906 174.476562 403.199219 173.683594 403.890625 C 162.722656 409.601562 152.589844 416.863281 141.828125 422.9375 C 127.105469 431.125 110.964844 436.667969 94.292969 439.011719 C 90.003906 439.507812 85.644531 439.773438 81.320312 439.871094 C 80.230469 439.609375 79.175781 439.3125 78.085938 439.078125 C 87.660156 436.769531 96.804688 432.476562 105.617188 427.988281 Z M 83.597656 348.601562 C 84.425781 363.386719 81.980469 378.078125 77.757812 392.273438 C 78.121094 388.277344 78.382812 384.285156 78.613281 380.222656 C 80.101562 356.523438 76.074219 332.921875 71.847656 309.648438 C 69.207031 296.179688 66.566406 282.644531 65.410156 268.949219 C 73.003906 295.15625 82.445312 321.035156 83.597656 348.601562 Z M 58.3125 381.148438 C 44.515625 339.589844 48.574219 301.496094 59.964844 260.53125 C 59.601562 266.667969 58.710938 272.777344 57.785156 278.851562 C 55.375 294.429688 53.890625 310.210938 54.1875 325.988281 C 54.320312 350.710938 59.832031 374.84375 64.617188 398.972656 C 62.441406 393.097656 59.996094 387.253906 58.3125 381.148438 Z M 69.769531 414.15625 C 69.007812 406.101562 65.378906 391.445312 65.113281 388.972656 C 62.011719 373.785156 58.90625 358.570312 57.554688 343.085938 C 56.234375 328.53125 56.332031 313.808594 57.6875 299.21875 C 58.480469 289.710938 60.195312 280.203125 61.417969 270.695312 C 60.953125 293.339844 59.304688 315.984375 61.84375 338.566406 C 63.890625 359.195312 68.777344 379.496094 69.703125 400.261719 C 69.867188 404.75 70.03125 409.535156 69.769531 414.15625 Z M 74.09375 403.496094 C 73.53125 405.046875 72.96875 406.566406 72.375 408.082031 C 72.277344 402.539062 71.816406 396.792969 71.816406 395.277344 C 70.558594 378.011719 66.929688 361.042969 64.847656 343.878906 C 61.746094 321.234375 63.132812 298.457031 63.695312 275.679688 C 64.949219 287.101562 67.257812 298.390625 69.40625 309.679688 C 72.96875 329.949219 76.800781 350.25 76.4375 370.949219 C 76.304688 381.808594 75.578125 392.699219 74.09375 403.496094 Z M 230.789062 321.269531 C 219.367188 331.601562 207.550781 342.128906 193.027344 347.808594 C 181.503906 352.164062 169.09375 353.585938 156.847656 354.011719 C 152.492188 354.113281 148.164062 354.046875 143.808594 353.980469 C 146.746094 353.453125 149.683594 352.824219 152.589844 352.066406 C 185.960938 344.042969 215.503906 325.988281 244.585938 308.359375 C 240.066406 312.71875 235.507812 317.074219 230.789062 321.269531 Z M 162.195312 327.308594 C 175.265625 320.507812 188.734375 314.136719 203.09375 310.605469 C 217.683594 307.074219 232.738281 306.214844 247.460938 303.609375 C 217.683594 313.179688 189.921875 327.902344 160.941406 339.523438 C 150.9375 343.417969 140.410156 346.949219 130.078125 350.152344 C 140.441406 342.03125 150.507812 333.710938 162.195312 327.308594 Z M 237.753906 309.515625 C 227.355469 315.886719 217.089844 322.589844 206.097656 327.9375 C 188.835938 337.277344 170.746094 345.199219 151.632812 349.820312 C 144.105469 351.734375 136.347656 352.824219 128.65625 353.714844 C 128.097656 353.914062 126.972656 353.949219 125.785156 353.980469 C 164.539062 343.617188 200.089844 323.414062 237.753906 309.515625 Z M 117.894531 268.023438 C 87.890625 228.742188 88.550781 194.046875 89.242188 150.375 C 91.257812 175.660156 93.140625 201.144531 101.09375 225.40625 C 107.101562 244.15625 117.003906 261.355469 125.390625 279.148438 C 122.980469 275.382812 120.371094 271.71875 117.894531 268.023438 Z M 127.800781 278.585938 C 122.1875 266.769531 115.949219 255.445312 110.765625 243.363281 C 96.570312 213.160156 93.667969 179.589844 91.457031 146.710938 C 97.5625 172.394531 100.863281 198.769531 108.621094 224.085938 C 113.769531 243.894531 122.253906 262.542969 129.25 281.722656 C 128.722656 280.664062 128.226562 279.640625 127.800781 278.585938 Z M 134.960938 290.800781 C 128.824219 271.984375 120.207031 253.894531 114.332031 234.949219 C 103.570312 202.894531 99.808594 169.160156 91.355469 136.546875 C 97.695312 148.59375 104.792969 160.28125 111.757812 171.964844 C 134.46875 211.476562 138.59375 247.09375 134.960938 290.800781 Z M 241.417969 197.546875 C 226.695312 216.097656 206.328125 229.796875 183.847656 237.09375 C 184.476562 236.632812 185.003906 236.269531 185.335938 236.101562 C 188.371094 233.859375 191.410156 231.582031 194.414062 229.238281 C 222.667969 207.976562 243.5625 178.996094 268.652344 154.335938 C 259.640625 168.761719 251.847656 184.011719 241.417969 197.546875 Z M 199.726562 201.671875 C 208.375 189.328125 218.476562 177.90625 230.824219 169.160156 C 243.199219 160.378906 256.570312 152.886719 270.402344 146.613281 C 250.695312 158.332031 230.722656 170.148438 215.042969 187.148438 C 204.679688 198.109375 196.195312 210.585938 187.480469 222.867188 C 186.886719 223.691406 186.324219 224.484375 185.730469 225.308594 C 190.1875 217.289062 194.445312 209.132812 199.726562 201.671875 Z M 188.636719 225.339844 C 194.742188 216.890625 200.585938 208.210938 207.089844 200.054688 C 223.660156 178.46875 246.46875 162.886719 270.070312 149.78125 C 269.773438 150.046875 269.476562 150.34375 269.210938 150.609375 C 249.472656 169.421875 232.570312 190.976562 213.164062 210.089844 C 204.117188 218.738281 194.117188 226.660156 184.046875 234.089844 C 182.761719 235.011719 181.472656 235.972656 180.152344 236.894531 C 183.386719 233 187.414062 226.597656 188.636719 225.339844 Z M 188.636719 225.339844 " fill-opacity="1" fill-rule="nonzero"/></g></g></g></g></g></g></g></svg>