<?xml version="1.0" encoding="utf-8"?>
<svg viewBox="-0.755 37.993 100 41.465" xmlns="http://www.w3.org/2000/svg">
  <g transform="matrix(0, 1, -1, 0, -0.90559387207, 9.107371330261)" style="transform-origin: 49.9998px 50.0006px;">
    <path d="M61.712,32.309c0.028-0.52-0.311-1.489,0.53-1.453c0.842,0.035,0.575,0.992,0.565,1.592   c-0.034,2.014-0.249,4.011-0.595,5.996c-0.053,0.307-0.214,0.619,0.005,1.066c1.498-1.759,2.093-3.759,2.117-5.954   c0.022-2.02-0.365-3.998-0.726-5.974c-0.23-1.262-0.506-2.516-0.765-3.791c-0.613,0.175-0.519,0.646-0.596,0.975   c-1.065,4.553-2.087,9.116-2.444,13.795c-0.124,1.624-0.47,3.206-0.781,4.827c1.035-1.263,1.528-2.749,1.881-4.287   C61.415,36.866,61.589,34.592,61.712,32.309z" style="fill-rule: nonzero; fill: rgb(246, 243, 234);"/>
    <path d="M33.961,6.326c1.112,2.876,4.15,5.022,7.786,5.28c-0.971-0.585-1.624-0.986-2.284-1.374   c-0.421-0.248-0.879-0.443-1.274-0.726c-0.426-0.306-1.418-0.394-0.94-1.178c0.427-0.7,1.069-0.011,1.553,0.232   c0.873,0.438,1.706,0.957,2.553,1.445c0.371,0.214,0.737,0.439,1.105,0.658c0.077-0.127,0.153-0.255,0.23-0.382   C40.522,7.431,37.506,6.382,33.961,6.326z" style="fill-rule: nonzero; fill: rgb(246, 243, 234);"/>
    <path d="M57.71,60.508c0.802-1.777,1.612-3.551,2.419-5.326c0.045-0.099,0.082-0.202,0.137-0.294   c0.178-0.298,0.426-0.539,0.786-0.392c0.37,0.151,0.389,0.491,0.246,0.823c-0.235,0.547-0.477,1.092-0.739,1.627   c-0.882,1.801-1.706,3.627-2.429,5.498c-0.076,0.198-0.113,0.41-0.237,0.874c2.909-2.238,4.789-7.351,4.866-12.282   c-2.969,1.344-5.106,5.208-5.772,10.457C57.504,61.351,57.541,60.884,57.71,60.508z" style="fill-rule: nonzero; fill: rgb(246, 243, 234);"/>
    <path d="M51.232,7.61c-2.025,2.554-2.156,6.968-0.345,11.939c0.394-0.362,0.213-0.794,0.191-1.206   c-0.1-1.947-0.192-3.895-0.287-5.843c-0.005-0.108-0.019-0.217-0.013-0.324c0.022-0.347,0.132-0.674,0.52-0.709   c0.398-0.035,0.57,0.259,0.595,0.62c0.041,0.594,0.076,1.19,0.088,1.785c0.04,2.005,0.144,4.006,0.357,6   c0.023,0.211,0.088,0.416,0.19,0.885C54.09,17.437,53.421,12.03,51.232,7.61z" style="fill-rule: nonzero; fill: rgb(246, 243, 234);"/>
    <path d="M64.7,71.329c-3.031,3.561-6.028,7.15-8.487,11.146c-0.853,1.387-1.885,2.635-2.903,3.934   c1.498-0.649,2.617-1.745,3.635-2.951c1.478-1.751,2.674-3.693,3.828-5.667c0.263-0.45,0.405-1.466,1.136-1.05   c0.733,0.417,0.057,1.145-0.227,1.674c-0.952,1.775-2.058,3.452-3.274,5.059c-0.188,0.249-0.474,0.452-0.483,0.95   c2.137-0.879,3.581-2.384,4.607-4.325c0.944-1.786,1.505-3.722,2.089-5.644c0.373-1.228,0.702-2.469,1.055-3.721   C65.052,70.61,64.92,71.071,64.7,71.329z" style="fill-rule: nonzero; fill: rgb(246, 243, 234);"/>
    <path d="M45.8,23.702c-1.53-0.511-3.057-1.03-4.662-1.439c3.21,4.314,6.241,8.812,11.868,10.377   c-0.243-0.692-0.807-1.098-1.298-1.56c-1.79-1.681-3.872-2.974-5.847-4.411c-0.419-0.305-1.383-0.499-0.915-1.235   c0.454-0.714,1.066-0.019,1.518,0.286c2.428,1.645,4.853,3.297,6.95,5.372c0.189,0.187,0.36,0.409,1.043,0.496   C52.12,28.071,49.76,25.026,45.8,23.702z" style="fill-rule: nonzero; fill: rgb(246, 243, 234);"/>
    <path d="M54.65,73.83c-0.466-4.196-1.171-7.984-4.086-10.973c-1.126-1.155-2.246-2.315-3.486-3.414   c0.88,5.304,1.516,10.691,5.802,14.658c0.1-0.727-0.215-1.346-0.44-1.981c-0.822-2.314-2.082-4.416-3.18-6.598   c-0.233-0.463-1.002-1.077-0.248-1.517c0.731-0.427,0.957,0.471,1.218,0.949c1.406,2.574,2.806,5.153,3.72,7.957   C54.033,73.164,54.083,73.44,54.65,73.83z" style="fill-rule: nonzero; fill: rgb(246, 243, 234);"/>
    <path d="M47.992,41.989c-0.328,3.066,1.391,6.364,4.506,8.258c-0.595-0.965-0.993-1.62-1.402-2.267   c-0.261-0.413-0.579-0.796-0.8-1.229c-0.239-0.467-1.081-1-0.297-1.477c0.7-0.427,0.956,0.48,1.274,0.916   c0.576,0.789,1.079,1.631,1.609,2.454c0.232,0.36,0.454,0.727,0.681,1.091c0.126-0.078,0.253-0.157,0.379-0.235   C53.319,45.974,51.118,43.661,47.992,41.989z" style="fill-rule: nonzero; fill: rgb(246, 243, 234);"/>
    <path d="M67.529,66.572c-0.644-0.313-0.885,0.437-1.182,0.849c-1.687,2.343-3.641,4.467-5.472,6.691   c-2.077,2.524-3.959,5.181-5.728,7.926c-0.637,0.989-1.261,2.014-2.474,2.915c0.755-2.089,1.584-3.839,2.177-5.684   c1.176-3.655,1.739-7.396,1.9-11.214c0.021-0.488,0.079-0.977,0.068-1.465c-0.016-0.669,0.201-1.101,0.882-1.35   c0.563-0.206,0.951-0.712,1.353-1.156c2.128-2.347,3.571-5.057,4.172-8.172c0.339-1.759,0.823-3.499,0.884-5.304   c0.016-0.464,0.207-1.041-0.369-1.312c-0.51-0.24-0.942,0.098-1.357,0.353c-2.768,1.705-4.453,4.244-5.555,7.23   c-0.112,0.305-0.206,0.617-0.317,0.953c-0.508-0.171-0.411-0.588-0.458-0.925c-0.101-0.722-0.219-1.441-0.337-2.16   c0.185-0.11,0.281-0.361,0.357-0.605c0.388-1.248,0.791-2.504,0.906-3.803c0.125-1.416,0.721-2.569,1.516-3.701   c1.314-1.87,2.628-3.739,4.088-5.497c2.571-3.098,3.298-6.624,2.66-10.55c-0.549-3.38-1.268-6.724-1.927-10.081   c-0.094-0.481-0.021-1.286-0.733-1.27c-0.716,0.016-0.587,0.794-0.662,1.295c-0.428,2.855-1.193,5.638-1.802,8.454   c-0.692,3.195-1.148,6.418-1.465,9.669c-0.114,1.171-0.199,2.368-0.865,3.724c-0.285-2.203-0.349-4.138-0.666-6.05   c-0.627-3.788-1.84-7.371-3.444-10.84c-0.205-0.444-0.377-0.905-0.61-1.333c-0.32-0.587-0.325-1.071,0.167-1.604   c0.407-0.441,0.519-1.068,0.674-1.647c0.818-3.061,0.861-6.131-0.032-9.175c-0.504-1.719-0.87-3.488-1.642-5.12   c-0.199-0.42-0.293-1.02-0.928-0.997c-0.563,0.02-0.793,0.518-1.045,0.935c-1.68,2.783-2.017,5.812-1.629,8.971   c0.04,0.323,0.099,0.643,0.154,0.992c-0.53,0.081-0.634-0.335-0.83-0.612c-1.314-1.863-2.768-3.623-3.924-5.602   c-1.579-2.702-4.062-4.18-7.058-4.821C35.81,5.228,34.61,5.122,33.42,5.014c-1.21-0.109-1.619,0.418-1.012,1.397   c1.907,3.079,4.201,5.711,8.062,6.321c1.127,0.178,2.247,0.437,3.38,0.526c0.553,0.044,0.897,0.205,1.217,0.629   c3.209,4.257,6.211,8.639,8.308,13.674c-0.522,0.058-0.683-0.315-0.9-0.563c-2.096-2.401-4.625-4.087-7.752-4.86   c-1.267-0.313-2.46-0.867-3.633-1.448c-0.338-0.168-0.694-0.354-1.059-0.401c-0.497-0.064-0.863,0.159-0.767,0.752   c0.088,0.544,0.309,1.041,0.612,1.5c2.079,3.146,4.485,6.012,7.352,8.47c1.766,1.514,3.818,2.469,6.075,3.036   c2.288,0.575,2.629,0.967,2.886,3.294c0.376,3.405,0.5,6.793-0.023,10.225c-0.245,1.61-0.445,3.219-0.81,4.801   c-0.1-0.742-0.186-1.486-0.226-2.238c-0.167-3.125-1.698-5.576-4.068-7.516c-0.922-0.755-1.94-1.399-2.948-2.039   c-1.025-0.651-1.63-0.37-1.539,0.778c0.286,3.611,1.121,7,4.274,9.31c0.92,0.674,1.798,1.417,2.765,2.015   c0.472,0.292,0.704,0.593,0.794,1.117c0.905,5.254,1.568,10.523,1.128,15.96c-0.49-0.187-0.463-0.593-0.542-0.913   c-0.764-3.094-2.241-5.75-4.668-7.87c-0.983-0.858-1.79-1.897-2.567-2.95c-0.224-0.304-0.455-0.632-0.758-0.841   c-0.413-0.285-0.84-0.253-1.026,0.318c-0.171,0.524-0.202,1.067-0.142,1.614c0.408,3.748,1.235,7.398,2.66,10.896   c0.877,2.154,2.265,3.942,4.011,5.48c1.771,1.559,1.895,2.063,1.058,4.25c-1.225,3.2-2.665,6.268-4.7,9.081   c-1.179,1.629-2.284,3.298-3.675,4.758c-0.075,0.079-0.157,0.153-0.22,0.241c-0.225,0.31-0.515,0.662-0.168,1.012   c0.36,0.363,0.693,0.079,0.972-0.206c0.916-0.932,1.85-1.864,2.546-2.966c0.759-1.202,1.817-1.954,3.042-2.596   c2.025-1.061,4.048-2.121,6.151-3.017c3.704-1.577,5.964-4.38,7.194-8.163c1.059-3.256,1.95-6.559,2.901-9.845   C67.735,67.566,68.169,66.883,67.529,66.572z M62.76,51.036c-0.077,4.931-1.957,10.045-4.866,12.282   c0.124-0.464,0.16-0.676,0.237-0.874c0.724-1.871,1.547-3.697,2.429-5.498c0.262-0.535,0.504-1.08,0.739-1.627   c0.143-0.332,0.124-0.673-0.246-0.823c-0.36-0.147-0.608,0.094-0.786,0.392c-0.055,0.092-0.092,0.196-0.137,0.294   c-0.807,1.775-1.617,3.549-2.419,5.326c-0.17,0.376-0.206,0.843-0.722,0.985C57.654,56.244,59.791,52.38,62.76,51.036z    M59.802,38.559c0.357-4.678,1.379-9.241,2.444-13.795c0.077-0.329-0.017-0.8,0.596-0.975c0.259,1.275,0.535,2.529,0.765,3.791   c0.361,1.976,0.748,3.954,0.726,5.974c-0.024,2.196-0.619,4.195-2.117,5.954c-0.22-0.448-0.059-0.759-0.005-1.066   c0.346-1.985,0.561-3.983,0.595-5.996c0.01-0.6,0.278-1.557-0.565-1.592c-0.841-0.035-0.502,0.933-0.53,1.453   c-0.123,2.283-0.297,4.557-0.81,6.79c-0.353,1.538-0.846,3.024-1.881,4.287C59.332,41.765,59.678,40.183,59.802,38.559z    M42.459,10.663c-0.368-0.22-0.733-0.444-1.105-0.658c-0.847-0.489-1.68-1.008-2.553-1.445c-0.483-0.242-1.125-0.932-1.553-0.232   c-0.478,0.783,0.515,0.872,0.94,1.178c0.395,0.284,0.852,0.478,1.274,0.726c0.66,0.389,1.313,0.789,2.284,1.374   c-3.636-0.258-6.674-2.403-7.786-5.28c3.545,0.055,6.561,1.105,8.728,3.955C42.613,10.408,42.536,10.536,42.459,10.663z    M52.338,19.872c-0.213-1.994-0.316-3.995-0.357-6c-0.012-0.595-0.047-1.191-0.088-1.785c-0.025-0.361-0.198-0.655-0.595-0.62   c-0.388,0.035-0.498,0.362-0.52,0.709c-0.007,0.107,0.007,0.216,0.013,0.324c0.095,1.948,0.186,3.896,0.287,5.843   c0.021,0.412,0.202,0.844-0.191,1.206c-1.81-4.971-1.679-9.385,0.345-11.939c2.188,4.42,2.858,9.826,1.295,13.147   C52.426,20.289,52.361,20.083,52.338,19.872z M53.413,31.092c-2.097-2.075-4.521-3.728-6.95-5.372   c-0.452-0.306-1.063-1.001-1.518-0.286c-0.469,0.737,0.496,0.93,0.915,1.235c1.975,1.437,4.057,2.73,5.847,4.411   c0.491,0.461,1.055,0.868,1.298,1.56c-5.626-1.565-8.658-6.063-11.868-10.377c1.606,0.409,3.133,0.928,4.662,1.439   c3.96,1.324,6.32,4.369,8.655,7.886C53.773,31.501,53.601,31.279,53.413,31.092z M53.563,49.735   c-0.227-0.364-0.449-0.731-0.681-1.091c-0.53-0.823-1.033-1.665-1.609-2.454c-0.319-0.437-0.574-1.343-1.274-0.916   c-0.784,0.478,0.058,1.01,0.297,1.477c0.221,0.433,0.539,0.815,0.8,1.229c0.409,0.648,0.806,1.303,1.402,2.267   c-3.115-1.894-4.834-5.192-4.506-8.258c3.126,1.672,5.327,3.986,5.95,7.511C53.815,49.578,53.689,49.656,53.563,49.735z    M53.95,72.912c-0.914-2.805-2.314-5.384-3.72-7.957c-0.262-0.479-0.487-1.376-1.218-0.949c-0.754,0.441,0.015,1.054,0.248,1.517   c1.098,2.182,2.358,4.284,3.18,6.598c0.226,0.635,0.54,1.254,0.44,1.981c-4.286-3.967-4.922-9.354-5.802-14.658   c1.24,1.099,2.36,2.259,3.486,3.414c2.915,2.989,3.619,6.777,4.086,10.973C54.083,73.44,54.033,73.164,53.95,72.912z    M64.622,74.456c-0.584,1.922-1.145,3.858-2.089,5.644c-1.026,1.941-2.471,3.446-4.607,4.325c0.009-0.499,0.295-0.702,0.483-0.95   c1.216-1.606,2.322-3.284,3.274-5.059c0.284-0.529,0.96-1.257,0.227-1.674c-0.732-0.416-0.873,0.6-1.136,1.05   c-1.154,1.974-2.35,3.916-3.828,5.667c-1.018,1.206-2.137,2.302-3.635,2.951c1.018-1.299,2.05-2.547,2.903-3.934   c2.459-3.996,5.456-7.585,8.487-11.146c0.219-0.258,0.351-0.719,0.976-0.594C65.323,71.987,64.995,73.228,64.622,74.456z" style="fill-rule: nonzero; fill: rgb(246, 243, 234);"/>
  </g>
</svg>