<?xml version="1.0" encoding="utf-8"?>
<svg viewBox="3.566 37.7892 90 37.328" xmlns="http://www.w3.org/2000/svg">
  <g transform="matrix(0, 1, -1, 0, -1.434036254883, 6.453162670136)" style="transform-origin: 50px 50px;">
    <g>
      <path d="M55.5,69.866c0.237-0.575,0.471-1.154,0.721-1.731c0.275-0.736,0.511-1.491,0.771-2.242l0.377-1.134    c0.114-0.382,0.203-0.773,0.306-1.161c0.199-0.777,0.399-1.557,0.599-2.34c0.146-0.794,0.292-1.591,0.438-2.39l0.214-1.2    l0.134-1.221c0.038-0.363,0.08-0.727,0.12-1.092c4.621-2.425,9.484-15.508,9.484-15.508s-7.12,7.338-9.299,12.722l0.032-0.977    c0.01-0.413,0.033-0.776,0.033-1.229l-0.041-1.218c-0.042-0.81-0.02-1.623-0.116-2.425c-0.077-0.804-0.154-1.605-0.23-2.404    c-0.235-1.801-0.576-3.565-0.987-5.29c3.704-3.71,4.662-17.503,4.662-17.503s-4.824,9.18-5.335,14.954    c-0.129-0.447-0.253-0.897-0.392-1.337c-0.975-2.893-2.153-5.603-3.474-8.064c-0.265-0.475-0.534-0.936-0.803-1.395    c2.87-4.31,0.418-18.275,0.418-18.275s-2.731,11.128-1.414,16.641c-0.803-1.271-1.627-2.468-2.489-3.547    c-1.124-1.498-2.29-2.801-3.404-3.957C43.741,11.591,31.336,5,31.336,5s8.927,11.078,14.172,12.072    c0.334,0.373,0.67,0.761,0.987,1.184c0.678,0.856,1.415,1.734,2.085,2.728c1.261,1.704,2.426,3.669,3.564,5.77    c-3.935-4.294-11.287-8.676-11.287-8.676s8.004,11.237,13.101,12.486c0.671,1.586,1.29,3.237,1.848,4.953    c0.858,2.852,1.482,5.867,1.881,8.963c0.015,0.164,0.03,0.329,0.045,0.492c-2.254-5.388-8.781-12.462-8.781-12.462    s4.487,13.07,9.023,15.701c0.006,0.323,0.011,0.646,0.026,0.968l0.034,1.185c0,0.348-0.026,0.787-0.038,1.176l-0.092,2.409    L57.662,56.3l-0.122,1.172l-0.203,1.167c-0.138,0.777-0.276,1.553-0.413,2.326c-0.191,0.762-0.382,1.522-0.572,2.278    c-0.098,0.377-0.182,0.758-0.291,1.131l-0.154,0.473c-0.251-5.711-5.496-15.504-5.496-15.504s1.076,13.898,4.846,17.511    c-0.089,0.274-0.177,0.549-0.273,0.819c-0.588,1.411-1.072,2.851-1.763,4.171c-0.327,0.668-0.633,1.341-0.969,1.989    c-0.36,0.637-0.716,1.267-1.069,1.891c-0.176,0.312-0.352,0.623-0.526,0.931c-0.194,0.297-0.387,0.591-0.579,0.884    c-0.384,0.587-0.763,1.166-1.138,1.738c-0.309,0.416-0.612,0.824-0.916,1.231c1.697-5.433-0.098-16.588-0.098-16.588    s-3.53,13.541-1.116,18.16c-0.095,0.119-0.188,0.247-0.285,0.364c-0.419,0.489-0.832,0.969-1.237,1.44    c-0.203,0.236-0.403,0.47-0.602,0.701c-0.213,0.218-0.424,0.435-0.632,0.649c-0.965,1.013-1.92,1.928-2.85,2.77    c-0.113,0.096-0.218,0.192-0.322,0.289c-0.548,0.489-1.089,0.959-1.61,1.391c-0.767,0.602-1.486,1.166-2.15,1.687    c-0.698,0.476-1.339,0.913-1.918,1.309c-0.29,0.198-0.564,0.385-0.823,0.561c-0.268,0.161-0.519,0.311-0.753,0.451    c-0.468,0.28-0.867,0.519-1.19,0.712C31.793,94.794,31.447,95,31.447,95s0.358-0.183,1.029-0.526    c0.336-0.172,0.751-0.384,1.238-0.633c0.244-0.125,0.505-0.26,0.785-0.404c0.268-0.164,0.552-0.338,0.853-0.522    c0.602-0.369,1.269-0.777,1.995-1.221c0.695-0.492,1.447-1.024,2.25-1.592c0.139-0.104,0.285-0.22,0.427-0.327    c5.126,0.577,16.381-8.223,16.381-8.223s-6.814,1.733-11.807,4.29c0.012-0.012,0.025-0.023,0.037-0.035    c0.22-0.21,0.442-0.422,0.666-0.637c0.21-0.228,0.423-0.458,0.637-0.69c0.429-0.465,0.867-0.939,1.311-1.421    c0.461-0.469,0.84-1.022,1.274-1.542c0.418-0.533,0.861-1.061,1.277-1.621c0.397-0.574,0.8-1.156,1.208-1.745    c0.204-0.295,0.409-0.591,0.616-0.89c0.187-0.311,0.374-0.624,0.563-0.938c0.374-0.631,0.752-1.27,1.134-1.914    c0.355-0.659,0.68-1.343,1.026-2.023c0.002-0.004,0.004-0.008,0.006-0.012c5.106-0.616,13.949-11.953,13.949-11.953    S59.138,65.357,55.5,69.866z" style="fill: rgb(255, 255, 255);"/>
    </g>
  </g>
</svg>