<?xml version="1.0" encoding="utf-8"?>
<svg viewBox="35.784 2.648 40.047 100.669" xmlns="http://www.w3.org/2000/svg">
  <path d="M 74.07 62.204 C 73.878 61.829 72.605 62.184 71.878 62.235 C 63.496 62.825 55.769 68.758 53.101 76.813 C 53.969 72.481 54.558 65.645 55.156 64.118 C 55.754 62.591 57.633 60.973 59.929 58.969 C 62.23 56.966 62.461 49.286 64.969 46.922 C 66.125 45.833 66.644 43.735 66.472 41.383 C 66.273 38.645 65.301 34.493 65.347 33.309 C 65.39 32.126 65.305 31.813 64.996 31.825 C 64.687 31.836 64.687 32.395 64.515 33.465 C 64.344 34.536 64.031 37.473 62.562 42.364 C 61.094 47.254 56.043 54.653 54.957 61.528 C 55.48 56.325 54.215 47.825 54.984 45.903 C 55.754 43.981 56.34 43.047 56.883 40.942 C 57.426 38.836 56.859 37.493 58.097 36.172 C 58.742 35.485 60.535 32.383 61.39 28.641 C 61.703 27.274 62.094 26.333 62.133 24.614 C 62.16 23.274 62 21.051 61.789 19.055 C 61.73 18.489 61.636 17.895 61.601 17.434 C 61.566 16.973 61.105 16.454 61.008 17.098 C 60.914 17.743 60.828 18.395 60.695 19.036 C 59.097 26.653 53.625 33.352 53.941 41.407 C 53.82 39.586 53.699 37.754 53.781 35.918 C 53.836 33.25 54.988 31.438 55.246 28.188 C 55.504 24.934 54.383 22.946 54.269 20.614 C 54.215 19.508 54.011 15.579 52.683 12.512 C 51.808 10.489 50.554 8.688 49.058 7.204 C 48.058 6.211 46.605 5.192 46.504 5.387 C 46.402 5.579 47.437 7.047 47.965 8.102 C 51.769 15.692 50.152 23.497 51.367 31.918 C 49.164 25.367 44.988 20.047 40.113 15.504 C 39.25 14.691 37.765 13.063 37.441 13.18 C 37.117 13.297 37.3 13.656 37.628 14.121 C 37.96 14.59 38.882 15.844 39.238 16.68 C 40.503 19.664 39.836 22.438 41.003 24.77 C 42.496 27.754 44.054 28.117 45.277 30.262 C 46.499 32.406 46.964 35.09 47.64 36.445 C 48.32 37.801 52.859 42.566 53.382 45.707 C 53.906 48.848 53.925 52.953 54.46 57.172 C 53.699 53.899 49.929 49.336 48.046 46.887 C 46.164 44.438 43.062 38.946 42.203 37.442 C 41.515 36.235 40.917 34.891 40.41 33.844 C 39.788 32.563 39.32 32.059 38.945 32.149 C 38.57 32.239 38.941 33.485 39.058 34.418 C 39.175 35.352 39.417 37.469 39.839 39.535 C 40.265 41.602 41.347 43.606 42.117 44.75 C 42.89 45.899 42.57 47.688 44.531 50.258 C 46.492 52.828 53.058 55.203 54.007 58.735 C 54.957 62.266 52.109 78.747 51.613 80.919 C 51.562 77.88 51.058 75.567 49.429 71.848 C 48.761 70.325 48.148 68.337 47.652 66.165 C 46.941 63.044 46.347 57.02 46.421 56.438 C 46.496 55.856 46.523 55.411 46.187 55.391 C 45.851 55.376 45.82 55.981 45.617 56.462 C 45.414 56.942 43.152 61.973 43.332 66.047 C 43.511 70.122 48.863 77.117 49.855 79.758 C 50.851 82.399 50.55 85.454 50.05 87.231 C 49.042 90.809 47.406 95.165 46.445 98.083 C 45.828 99.954 45.222 101.075 45.769 101.329 C 46.316 101.583 46.663 100.153 47.226 98.431 C 47.757 96.806 48.328 94.81 48.847 93.279 C 49.913 90.13 50.757 87.782 51.535 84.915 C 52.312 82.052 52.792 78.052 54.589 76.068 C 56.386 74.083 57.464 73.724 59.507 73.126 C 61.546 72.529 62.46 71.032 63.429 70.216 C 64.398 69.4 64.46 69.454 65.624 68.997 C 66.789 68.544 68.316 66.97 70.003 65.833 C 71.097 65.095 71.718 64.13 72.492 63.462 C 72.929 63.103 74.257 62.579 74.07 62.204 L 74.07 62.204 Z M 65.585 65.493 C 67.738 64.852 69.929 64.297 71.874 63.204 C 69.093 66.86 66.273 66.403 64.746 66.735 C 63.218 67.067 62.273 68.219 61.374 68.84 C 60.472 69.461 58.531 69.856 57.402 70.516 C 59.605 68.321 62.609 66.43 65.585 65.493 L 65.585 65.493 Z M 71.71 62.805 C 67.968 64.606 63.433 64.778 60.148 67.618 C 63.355 64.887 67.519 63.153 71.71 62.805 L 71.71 62.805 Z M 64.308 46.86 C 61.57 49.931 61.921 56.329 59.414 58.606 C 56.906 60.88 55.828 61.575 55.152 63.032 C 55.929 59.79 59.039 56.095 60.597 52.438 C 63.078 47.727 64.546 42.524 65.152 37.243 C 65.785 40.559 67.046 43.79 64.308 46.86 L 64.308 46.86 Z M 60.695 48.552 C 62.706 44.466 64.078 40.11 64.855 35.622 C 64.082 44.602 60.574 51.989 56.097 59.165 C 57.23 55.485 58.953 52.004 60.695 48.552 L 60.695 48.552 Z M 61.492 21.923 C 62.402 27.872 59.722 29.712 55.999 33.56 C 56.183 33.181 60.765 25.778 61.492 21.923 L 61.492 21.923 Z M 57.706 32.653 C 58.968 31.399 60.054 30.379 60.761 29.414 C 59.976 31.235 55.496 34.723 54.402 42.617 C 54.234 34.695 56.445 33.91 57.706 32.653 L 57.706 32.653 Z M 56.855 37.621 C 56.761 39.348 56.382 41.934 54.515 45.52 C 55.496 37.7 57.113 35.059 60.175 31.188 C 58.624 35.446 56.949 35.895 56.855 37.621 L 56.855 37.621 Z M 61.281 19.547 C 61.152 23.395 58.492 28.11 56.636 31.461 C 57.406 29.551 60.968 21.254 61.281 19.547 L 61.281 19.547 Z M 54.66 27.379 C 54.722 30.391 53.124 33.001 53.214 36.016 C 52.964 27.348 54.73 17.086 49.945 9.379 C 53.066 12.031 53.765 18.723 53.734 20.563 C 53.707 22.407 54.597 24.368 54.66 27.38 L 54.66 27.379 Z M 48.105 7.129 C 55.078 17.367 51.617 27.231 52.878 36.859 C 50.023 27.57 53.734 17.918 48.105 7.129 Z M 50.828 32.238 C 52.14 36.192 53.179 40.278 53.734 44.414 C 51.335 35.625 47.347 25.504 41.347 17.594 C 45.515 21.7 48.694 26.798 50.827 32.239 L 50.828 32.238 Z M 45.937 29.938 C 44.484 27.461 42.636 27.012 41.351 23.555 C 40.707 21.817 41.015 18.738 40.113 16.969 C 46.499 24.91 49.582 33.899 52.89 42.903 C 51.859 40.926 50.46 39.13 49.101 37.38 C 47.273 35.34 47.386 32.415 45.937 29.938 L 45.937 29.938 Z M 39.984 37.629 C 42.871 42.77 47.32 46.453 50.574 51.25 C 47.152 48.688 44.164 44.766 42.757 42.949 C 41.351 41.129 40.218 39.695 39.984 37.629 L 39.984 37.629 Z M 45.464 43.981 C 42.792 40.867 39.464 37.477 39.527 33.465 C 41.406 36.984 43.335 40.621 45.464 43.981 Z M 40.921 41.426 C 43.242 44.653 45.32 47.547 48.828 50.457 C 47.226 49.621 43.886 47.879 43.792 47.828 C 43.324 46.957 43.277 45.996 42.906 45.113 C 42.417 43.957 41.495 43.043 40.921 41.426 L 40.921 41.426 Z M 44.249 48.66 C 48.488 51.281 52.242 51.856 53.96 57.258 C 52.617 54.422 45.796 51.957 44.249 48.66 L 44.249 48.66 Z M 48.499 71.219 C 50.027 75.294 51.261 76.778 51.148 82.922 C 51.527 74.301 43.277 67.008 45.8 57.699 C 46.117 61.777 46.972 67.145 48.499 71.219 L 48.499 71.219 Z M 44.121 67.067 C 43.554 64.001 44.25 62.212 44.964 59.598 C 43.511 66.555 48.632 72.559 50.265 79.106 C 48.625 74.97 44.683 70.134 44.121 67.067 L 44.121 67.067 Z M 54.879 74.876 C 56.48 72.633 59.203 71.446 61.843 70.813 C 60.668 72.844 56.785 72.508 54.879 74.876 Z M 62.656 70.055 C 59.757 70.751 56.828 71.602 54.964 74.083 C 56.582 69.958 60.316 70.805 62.992 68.294 C 64.39 67.106 66.027 67.126 67.742 66.946 C 66.187 68.504 64.234 68.583 62.656 70.055 L 62.656 70.055 Z" style="fill: rgb(212, 186, 99);" transform="matrix(0.9999999999999999, 0, 0, 0.9999999999999999, 0, 0)"/>
</svg>