<?xml version="1.0" encoding="utf-8"?>
<svg viewBox="0 0 64 64.064" xmlns="http://www.w3.org/2000/svg">
  <g>
    <path d="M25.794,39.519l-15.588-9a1,1,0,0,0-1.476.646l-6.7,29.614a1,1,0,0,0,1.654.955L25.973,41.12a1,1,0,0,0-.179-1.6ZM4.687,58.078,6.1,51.841l1.059,3.952Zm4.13-3.819L7.5,49.346l-.454-1.693,1.4-6.177L11.265,52Zm4.107-3.8-2.462-9.19L9.4,37.288l.986-4.358,1.064.614L15.372,48.2Zm4.107-3.8L13.9,34.958l3.612,2.086L19.479,44.4Zm4.107-3.8-.1-.374-1.081-4.034,3.662,2.115Z" style="fill: rgb(212, 186, 99);"/>
    <path d="M61.98,60.78,55.27,31.16a.993.993,0,0,0-.57-.69,1.007,1.007,0,0,0-.91.05l-15.58,9a.991.991,0,0,0-.18,1.6L60.32,61.73A.977.977,0,0,0,61,62a1,1,0,0,0,.98-1.22ZM42.96,42.49l-.1.38-2.48-2.3,3.66-2.11Zm1.56,1.91,1.97-7.36,3.62-2.08-3.14,11.7Zm4.11,3.8,3.93-14.66,1.06-.61.99,4.36-1.07,3.98-2.46,9.19Zm6.55,6.06L52.73,52l2.82-10.52,1.4,6.17-.45,1.7Zm1.66,1.53,1.06-3.95,1.41,6.24Z" style="fill: rgb(212, 186, 99);"/>
    <path d="M32,26a1,1,0,0,1-.6-.2c-.735-.551-4.4-3.421-4.4-5.8a3,3,0,0,1,5-2.234A3,3,0,0,1,37,20c0,2.379-3.665,5.249-4.4,5.8A1,1,0,0,1,32,26Zm-2-7a1,1,0,0,0-1,1c0,.817,1.463,2.458,3,3.727,1.537-1.269,3-2.91,3-3.727a1,1,0,0,0-2,0,1,1,0,0,1-2,0A1,1,0,0,0,30,19Z" style="fill: rgb(212, 186, 99);"/>
    <path d="M32,40a1,1,0,0,1-.6-.2c-.735-.551-4.4-3.421-4.4-5.8a3,3,0,0,1,5-2.234A3,3,0,0,1,37,34c0,2.379-3.665,5.249-4.4,5.8A1,1,0,0,1,32,40Zm-2-7a1,1,0,0,0-1,1c0,.817,1.463,2.458,3,3.727,1.537-1.269,3-2.91,3-3.727a1,1,0,0,0-2,0,1,1,0,0,1-2,0A1,1,0,0,0,30,33Z" style="fill: rgb(212, 186, 99);"/>
    <path d="M32,11a1,1,0,0,1-.6-.2C30.665,10.249,27,7.379,27,5a3,3,0,0,1,5-2.234A3,3,0,0,1,37,5c0,2.379-3.665,5.249-4.4,5.8A1,1,0,0,1,32,11ZM30,4a1,1,0,0,0-1,1c0,.817,1.463,2.458,3,3.727C33.537,7.458,35,5.817,35,5a1,1,0,0,0-2,0,1,1,0,0,1-2,0A1,1,0,0,0,30,4Z" style="fill: rgb(212, 186, 99);"/>
    <path d="M44.724,12.69l-1.448-1.379A23.617,23.617,0,0,1,50.584,6.09,23.984,23.984,0,0,1,62.065,4l-.13,2A21.932,21.932,0,0,0,51.416,7.91,21.607,21.607,0,0,0,44.724,12.69Z" style="fill: rgb(212, 186, 99);"/>
    <path d="M37.918,14.4,36.082,13.6a22.063,22.063,0,0,1,6.287-8.379,21.551,21.551,0,0,1,5.242-3.146l.778,1.842a19.607,19.607,0,0,0-4.758,2.854A20.083,20.083,0,0,0,37.918,14.4Z" style="fill: rgb(212, 186, 99);"/>
    <path d="M44.724,25.69l-1.448-1.379a23.617,23.617,0,0,1,7.308-5.221A23.984,23.984,0,0,1,62.065,17l-.13,2A21.932,21.932,0,0,0,51.416,20.91,21.607,21.607,0,0,0,44.724,25.69Z" style="fill: rgb(212, 186, 99);"/>
    <path d="M37.918,27.4,36.082,26.6a22.063,22.063,0,0,1,6.287-8.379,21.551,21.551,0,0,1,5.242-3.146l.778,1.842a19.607,19.607,0,0,0-4.758,2.854A20.083,20.083,0,0,0,37.918,27.4Z" style="fill: rgb(212, 186, 99);"/>
    <path d="M19.276,12.69a21.607,21.607,0,0,0-6.692-4.78A21.952,21.952,0,0,0,2.065,6l-.13-2A23.984,23.984,0,0,1,13.416,6.09a23.617,23.617,0,0,1,7.308,5.221Z" style="fill: rgb(212, 186, 99);"/>
    <path d="M26.082,14.4a20.083,20.083,0,0,0-5.713-7.621,19.607,19.607,0,0,0-4.758-2.854l.778-1.842a21.551,21.551,0,0,1,5.242,3.146A22.063,22.063,0,0,1,27.918,13.6Z" style="fill: rgb(212, 186, 99);"/>
    <path d="M19.276,25.69a21.607,21.607,0,0,0-6.692-4.78A21.971,21.971,0,0,0,2.065,19l-.13-2A23.991,23.991,0,0,1,13.416,19.09a23.617,23.617,0,0,1,7.308,5.221Z" style="fill: rgb(212, 186, 99);"/>
    <path d="M26.082,27.4a20.083,20.083,0,0,0-5.713-7.621,19.607,19.607,0,0,0-4.758-2.854l.778-1.842a21.551,21.551,0,0,1,5.242,3.146A22.063,22.063,0,0,1,27.918,26.6Z" style="fill: rgb(212, 186, 99);"/>
  </g>
</svg>